<?xml version="1.0" encoding="utf-8"?>
<!-- Generator: Adobe Illustrator 16.0.0, SVG Export Plug-In . SVG Version: 6.00 Build 0)  -->
<!DOCTYPE svg PUBLIC "-//W3C//DTD SVG 1.1//EN" "http://www.w3.org/Graphics/SVG/1.1/DTD/svg11.dtd">
<svg version="1.1" id="Calque_1" xmlns="http://www.w3.org/2000/svg" xmlns:xlink="http://www.w3.org/1999/xlink" x="0px" y="0px"
	 width="595.281px" height="841.89px" viewBox="0 0 595.281 841.89" enable-background="new 0 0 595.281 841.89"
	 xml:space="preserve">
<g>
	<path fill="none" d="M397,165.89c51.32,0,102.639,0.039,153.959-0.091c3.332-0.009,4.145,0.538,4.141,4.047
		c-0.113,167.955-0.115,335.909,0.014,503.864c0.002,3.799-1.016,4.262-4.432,4.26c-167.787-0.092-335.576-0.092-503.364,0.002
		c-3.421,0.002-4.431-0.471-4.428-4.264c0.128-167.955,0.125-335.91,0.011-503.865c-0.002-3.513,0.816-4.053,4.144-4.045
		c52.652,0.129,105.304,0.091,157.957,0.091c-7.949,1.763-16.012,3.123-23.826,5.357c-35.462,10.141-64.078,30.721-87.281,58.922
		c-35.358,42.972-50.395,92.563-45.863,147.857c2.552,31.151,12.292,60.308,28.4,87.132c22.132,36.859,51.546,65.623,92.435,81.152
		c3.871,1.471,4.186,4.002,4.2,7.396c0.155,35.32,0.393,70.643,0.618,105.965c0.01,1.496-0.038,3.021,0.222,4.482
		c1.464,8.246,9.851,11.848,16.73,7.096c3.145-2.172,6.079-4.666,9.008-7.131c43.844-36.908,87.688-73.816,131.461-110.807
		c2.592-2.188,5.156-3.182,8.549-3.16c13.83,0.076,27.666,0.104,41.49-0.23c9.137-0.219,18.309-0.424,27.328-2.291
		c35.023-7.244,64.006-25.004,87.891-51.201c40.439-44.354,58.092-96.853,53.598-156.471c-2.281-30.245-11.465-58.776-26.836-85.063
		c-19.771-33.816-46.547-60.169-82.584-76.52C426.623,172.062,411.904,168.689,397,165.89z"/>
	<path fill="#08133F" d="M397,165.89c14.904,2.799,29.623,6.172,43.539,12.486c36.037,16.351,62.812,42.703,82.584,76.52
		c15.371,26.287,24.557,54.818,26.836,85.063c4.496,59.618-13.156,112.117-53.598,156.472
		c-23.885,26.195-52.865,43.955-87.889,51.201c-9.021,1.865-18.193,2.07-27.33,2.291c-13.824,0.332-27.66,0.305-41.49,0.229
		c-3.391-0.02-5.957,0.973-8.549,3.16c-43.773,36.99-87.617,73.898-131.46,110.807c-2.93,2.467-5.863,4.959-9.008,7.131
		c-6.88,4.752-15.266,1.152-16.73-7.094c-0.26-1.463-0.212-2.988-0.222-4.484c-0.226-35.322-0.463-70.643-0.618-105.965
		c-0.015-3.393-0.33-5.924-4.2-7.395c-40.889-15.529-70.303-44.293-92.435-81.152c-16.108-26.826-25.848-55.98-28.4-87.133
		c-4.531-55.294,10.505-104.886,45.863-147.857c23.204-28.201,51.819-48.781,87.281-58.922c7.814-2.234,15.877-3.595,23.826-5.357
		C269,165.89,333,165.89,397,165.89z M195.298,586.433c0.016,0,0.032,0,0.048,0c0,15.332-0.014,30.664,0.023,45.996
		c0.003,1.441-0.565,3.295,0.911,4.176c1.667,0.996,2.681-0.764,3.755-1.668c19.252-16.193,38.448-32.457,57.726-48.621
		c21.704-18.197,43.49-36.297,65.205-54.48c2.676-2.242,5.58-3.182,9.092-3.43c15.32-1.086,30.652-0.406,45.977-0.578
		c8.666-0.098,17.312-0.146,25.879-1.738c35.961-6.688,64.551-25.529,86.48-54.189c31.51-41.178,42.934-88.019,36.506-139.276
		c-5.102-40.665-21.236-76.147-50.771-104.984c-24.639-24.056-53.838-38.994-88.672-39.397
		c-57.656-0.669-115.326-0.175-172.988-0.186c-5.853-0.001-11.646,0.663-17.357,1.789c-39.591,7.805-70.573,29.207-93.709,61.617
		C74.729,291.627,63.59,336.82,71.376,385.504c11.056,69.125,45.738,120.261,114.839,143.394c7.29,2.439,9.022,5.121,9.062,13.037
		C195.351,556.767,195.298,571.599,195.298,586.433z"/>
	<path fill="none" d="M195.298,586.433c0-14.834,0.052-29.666-0.021-44.498c-0.039-7.916-1.771-10.598-9.062-13.037
		c-69.101-23.133-103.784-74.27-114.839-143.394c-7.787-48.685,3.353-93.877,32.025-134.043
		c23.136-32.41,54.118-53.812,93.709-61.617c5.712-1.126,11.505-1.79,17.357-1.789c57.663,0.011,115.333-0.483,172.988,0.186
		c34.836,0.403,64.033,15.342,88.672,39.397c29.537,28.837,45.672,64.319,50.771,104.984c6.43,51.258-4.994,98.098-36.504,139.276
		c-21.932,28.66-50.521,47.504-86.482,54.189c-8.564,1.594-17.213,1.641-25.879,1.738c-15.322,0.172-30.654-0.508-45.977,0.578
		c-3.51,0.248-6.414,1.188-9.092,3.43c-21.715,18.184-43.5,36.283-65.205,54.48c-19.278,16.164-38.473,32.428-57.726,48.621
		c-1.075,0.904-2.088,2.664-3.755,1.668c-1.476-0.881-0.907-2.734-0.911-4.176c-0.038-15.332-0.023-30.664-0.023-45.996
		C195.331,586.433,195.314,586.433,195.298,586.433z M301.226,293.572c0,0.056,0,0.111,0,0.167c-30.306,0-60.613-0.028-90.919,0.036
		c-3.648,0.008-7.296,0.489-10.941,0.792c-2.507,0.207-4.309,1.602-5.739,3.572c-2.476,3.414-2.603,7.012-1.084,10.869
		c1.727,4.389,5.374,5.794,9.521,6.04c7.473,0.444,14.964,0.777,22.448,0.806c29.973,0.113,59.947,0.179,89.919,0.096
		c26.971-0.075,53.945,0.501,80.904-0.739c4.035-0.185,8.129-0.318,10.645-4.201c2.199-3.396,3.125-7.021,0.969-10.826
		c-2.371-4.18-5.605-6.684-10.807-6.666C364.503,293.626,332.865,293.572,301.226,293.572z M299.351,357.747
		c-29.828,0-59.658-0.026-89.488,0.035c-3.484,0.007-6.969,0.485-10.451,0.775c-2.717,0.228-4.587,1.797-6.053,3.955
		c-4.634,6.82-0.44,15.556,8.189,16.452c6.283,0.652,12.636,0.853,18.958,0.86c52.994,0.061,105.988,0.074,158.982-0.027
		c6.975-0.013,13.994-0.398,20.904-1.286c4.896-0.628,7.994-5.578,7.74-10.727c-0.242-4.878-3.773-8.705-8.836-9.204
		c-4.469-0.44-8.969-0.795-13.455-0.807C357.013,357.704,328.183,357.739,299.351,357.747z M256.662,421.699
		c0-0.041,0-0.084,0-0.125c-9.658,0-19.317-0.091-28.974,0.023c-8.814,0.105-17.652-0.468-26.434,0.82
		c-7.021,1.029-9.868,4.209-9.588,10.828c0.245,5.791,4.018,9.439,10.419,9.914c4.313,0.318,8.639,0.668,12.959,0.678
		c26.976,0.064,53.952,0.123,80.927-0.033c5.452-0.031,11.022,0.064,16.353-1.404c4.604-1.271,7.414-5.734,6.979-10.809
		c-0.412-4.785-2.811-8.176-7.754-9.1c-2.602-0.488-5.283-0.748-7.93-0.76C287.967,421.664,272.314,421.699,256.662,421.699z"/>
	<path fill="#08133F" d="M301.226,293.572c31.639,0,63.277,0.055,94.916-0.055c5.199-0.018,8.436,2.486,10.805,6.666
		c2.158,3.805,1.23,7.431-0.967,10.826c-2.516,3.883-6.609,4.017-10.646,4.201c-26.959,1.24-53.934,0.664-80.902,0.739
		c-29.973,0.083-59.947,0.018-89.92-0.096c-7.484-0.028-14.975-0.361-22.448-0.806c-4.147-0.246-7.794-1.651-9.521-6.04
		c-1.518-3.857-1.392-7.455,1.084-10.869c1.43-1.971,3.232-3.365,5.739-3.572c3.645-0.303,7.293-0.784,10.941-0.792
		c30.306-0.064,60.613-0.036,90.918-0.036C301.226,293.683,301.226,293.627,301.226,293.572z"/>
	<path fill="#08133F" d="M299.351,357.743c28.832-0.004,57.662-0.039,86.492,0.031c4.486,0.012,8.984,0.366,13.455,0.807
		c5.061,0.499,8.592,4.326,8.834,9.204c0.256,5.148-2.844,10.099-7.738,10.727c-6.912,0.888-13.932,1.273-20.904,1.286
		c-52.994,0.102-105.989,0.088-158.983,0.027c-6.322-0.008-12.675-0.208-18.958-0.86c-8.63-0.896-12.824-9.632-8.189-16.452
		c1.466-2.158,3.335-3.728,6.053-3.955c3.482-0.29,6.966-0.769,10.451-0.775C239.692,357.72,269.522,357.747,299.351,357.743z"/>
	<path fill="#08133F" d="M256.662,421.699c15.652,0,31.305-0.035,46.958,0.033c2.645,0.012,5.328,0.271,7.93,0.76
		c4.941,0.926,7.342,4.314,7.752,9.1c0.438,5.074-2.373,9.539-6.979,10.811c-5.328,1.469-10.898,1.373-16.352,1.404
		c-26.975,0.154-53.952,0.098-80.927,0.033c-4.321-0.01-8.646-0.357-12.959-0.678c-6.401-0.477-10.174-4.125-10.419-9.916
		c-0.28-6.619,2.567-9.799,9.588-10.828c8.782-1.288,17.62-0.713,26.434-0.818c9.657-0.115,19.316-0.025,28.974-0.025
		C256.662,421.615,256.662,421.658,256.662,421.699z"/>
</g>
</svg>
