<?xml version="1.0" encoding="utf-8"?>
<!-- Generator: Adobe Illustrator 16.0.0, SVG Export Plug-In . SVG Version: 6.00 Build 0)  -->
<!DOCTYPE svg PUBLIC "-//W3C//DTD SVG 1.1//EN" "http://www.w3.org/Graphics/SVG/1.1/DTD/svg11.dtd">
<svg version="1.1" id="Calque_1" xmlns="http://www.w3.org/2000/svg" xmlns:xlink="http://www.w3.org/1999/xlink" x="0px" y="0px"
	 width="595.28px" height="841.89px" viewBox="0 0 595.28 841.89" enable-background="new 0 0 595.28 841.89" xml:space="preserve">
<g>
	<path fill="none" d="M397,165.89c51.319,0,102.639,0.039,153.958-0.091c3.332-0.009,4.145,0.538,4.142,4.047
		c-0.114,167.955-0.117,335.91,0.012,503.865c0.003,3.798-1.015,4.262-4.43,4.26c-167.788-0.093-335.577-0.093-503.365,0.001
		c-3.421,0.002-4.431-0.471-4.428-4.264c0.128-167.954,0.125-335.909,0.011-503.864c-0.002-3.513,0.816-4.053,4.144-4.045
		c52.652,0.129,105.304,0.091,157.957,0.091c-7.949,1.763-16.012,3.123-23.826,5.357c-35.462,10.141-64.078,30.721-87.281,58.922
		c-35.358,42.972-50.395,92.563-45.863,147.857c2.552,31.151,12.292,60.307,28.4,87.132c22.132,36.86,51.546,65.623,92.435,81.153
		c3.871,1.47,4.186,4.001,4.2,7.395c0.155,35.321,0.393,70.643,0.618,105.965c0.01,1.496-0.038,3.021,0.222,4.483
		c1.464,8.246,9.851,11.847,16.73,7.095c3.145-2.172,6.079-4.665,9.008-7.131c43.844-36.907,87.688-73.815,131.461-110.806
		c2.591-2.188,5.157-3.181,8.548-3.161c13.83,0.077,27.666,0.104,41.491-0.229c9.136-0.22,18.309-0.425,27.329-2.291
		c35.022-7.245,64.004-25.005,87.889-51.201c40.441-44.354,58.093-96.854,53.598-156.472c-2.28-30.245-11.465-58.776-26.836-85.063
		c-19.772-33.816-46.547-60.169-82.584-76.52C426.622,172.062,411.903,168.689,397,165.89z"/>
	<path fill-rule="evenodd" clip-rule="evenodd" fill="#525252" d="M397,165.89c14.903,2.799,29.622,6.172,43.539,12.486
		c36.037,16.351,62.812,42.703,82.584,76.52c15.371,26.287,24.556,54.818,26.836,85.063c4.495,59.618-13.156,112.117-53.598,156.472
		c-23.885,26.196-52.866,43.956-87.889,51.201c-9.021,1.866-18.193,2.071-27.329,2.291c-13.825,0.333-27.661,0.306-41.491,0.229
		c-3.391-0.02-5.957,0.973-8.548,3.161c-43.774,36.99-87.618,73.898-131.461,110.806c-2.93,2.466-5.863,4.959-9.008,7.131
		c-6.88,4.752-15.266,1.151-16.73-7.095c-0.26-1.462-0.212-2.987-0.222-4.483c-0.226-35.322-0.463-70.644-0.618-105.965
		c-0.015-3.394-0.33-5.925-4.2-7.395c-40.889-15.53-70.303-44.293-92.435-81.153c-16.108-26.825-25.848-55.98-28.4-87.132
		c-4.531-55.294,10.505-104.886,45.863-147.857c23.204-28.201,51.819-48.781,87.281-58.922c7.814-2.234,15.877-3.595,23.826-5.357
		C269,165.89,333,165.89,397,165.89z M195.298,586.433c0.016,0,0.032,0,0.048,0c0,15.332-0.014,30.665,0.023,45.997
		c0.003,1.44-0.565,3.294,0.911,4.175c1.667,0.996,2.681-0.764,3.755-1.668c19.252-16.194,38.448-32.457,57.726-48.621
		c21.704-18.197,43.49-36.297,65.205-54.481c2.677-2.241,5.581-3.181,9.092-3.43c15.32-1.085,30.652-0.405,45.976-0.577
		c8.666-0.098,17.313-0.146,25.879-1.738c35.962-6.688,64.552-25.53,86.482-54.19c31.509-41.178,42.933-88.019,36.504-139.276
		c-5.1-40.665-21.235-76.147-50.771-104.984c-24.639-24.056-53.837-38.994-88.672-39.397c-57.655-0.669-115.325-0.175-172.988-0.186
		c-5.853-0.001-11.646,0.663-17.357,1.789c-39.591,7.805-70.573,29.207-93.709,61.617C74.729,291.627,63.59,336.82,71.376,385.504
		c11.056,69.125,45.738,120.261,114.839,143.394c7.29,2.44,9.022,5.122,9.062,13.037C195.351,556.768,195.298,571.6,195.298,586.433
		z"/>
	<path fill-rule="evenodd" clip-rule="evenodd" fill="none" d="M195.298,586.433c0-14.833,0.052-29.665-0.021-44.498
		c-0.039-7.915-1.771-10.597-9.062-13.037c-69.101-23.133-103.784-74.269-114.839-143.394
		c-7.787-48.685,3.353-93.877,32.025-134.043c23.136-32.41,54.118-53.812,93.709-61.617c5.712-1.126,11.505-1.79,17.357-1.789
		c57.663,0.011,115.333-0.483,172.988,0.186c34.835,0.403,64.033,15.342,88.672,39.397c29.536,28.837,45.672,64.319,50.771,104.984
		c6.429,51.258-4.995,98.099-36.504,139.276c-21.931,28.66-50.521,47.503-86.482,54.19c-8.565,1.593-17.213,1.641-25.879,1.738
		c-15.323,0.172-30.655-0.508-45.976,0.577c-3.511,0.249-6.415,1.188-9.092,3.43c-21.715,18.185-43.501,36.284-65.205,54.481
		c-19.278,16.164-38.473,32.427-57.726,48.621c-1.075,0.904-2.088,2.664-3.755,1.668c-1.476-0.881-0.907-2.734-0.911-4.175
		c-0.038-15.332-0.023-30.665-0.023-45.997C195.331,586.433,195.314,586.433,195.298,586.433z M301.226,293.572
		c0,0.056,0,0.111,0,0.167c-30.306,0-60.613-0.028-90.919,0.036c-3.648,0.008-7.296,0.489-10.941,0.792
		c-2.507,0.207-4.309,1.602-5.739,3.572c-2.476,3.414-2.603,7.012-1.084,10.869c1.727,4.389,5.374,5.794,9.521,6.04
		c7.473,0.444,14.964,0.777,22.448,0.806c29.973,0.113,59.947,0.179,89.92,0.096c26.969-0.075,53.944,0.501,80.903-0.739
		c4.035-0.185,8.13-0.318,10.645-4.201c2.199-3.396,3.125-7.021,0.968-10.826c-2.37-4.18-5.605-6.684-10.805-6.666
		C364.503,293.626,332.864,293.572,301.226,293.572z M299.352,357.747c-29.829,0-59.659-0.026-89.489,0.035
		c-3.484,0.007-6.969,0.485-10.451,0.775c-2.717,0.228-4.587,1.797-6.053,3.955c-4.634,6.82-0.44,15.556,8.189,16.452
		c6.283,0.652,12.636,0.853,18.958,0.86c52.994,0.061,105.988,0.074,158.982-0.027c6.975-0.013,13.993-0.398,20.905-1.286
		c4.896-0.628,7.994-5.578,7.739-10.727c-0.242-4.878-3.774-8.705-8.835-9.204c-4.47-0.44-8.969-0.795-13.455-0.807
		C357.013,357.704,328.183,357.739,299.352,357.747z M256.662,421.699c0-0.042,0-0.084,0-0.126c-9.658,0-19.317-0.09-28.974,0.025
		c-8.814,0.105-17.652-0.469-26.434,0.819c-7.021,1.029-9.868,4.209-9.588,10.828c0.245,5.791,4.018,9.44,10.419,9.915
		c4.313,0.319,8.639,0.668,12.959,0.678c26.976,0.063,53.952,0.122,80.927-0.033c5.453-0.032,11.023,0.064,16.352-1.405
		c4.604-1.271,7.415-5.735,6.979-10.809c-0.411-4.784-2.811-8.175-7.753-9.1c-2.602-0.487-5.283-0.748-7.93-0.76
		C287.967,421.664,272.314,421.699,256.662,421.699z"/>
	<path fill-rule="evenodd" clip-rule="evenodd" fill="#525252" d="M301.226,293.572c31.639,0,63.277,0.055,94.916-0.055
		c5.199-0.018,8.435,2.486,10.805,6.666c2.157,3.805,1.231,7.431-0.968,10.826c-2.515,3.883-6.609,4.017-10.645,4.201
		c-26.959,1.24-53.935,0.664-80.903,0.739c-29.973,0.083-59.947,0.018-89.92-0.096c-7.484-0.028-14.975-0.361-22.448-0.806
		c-4.147-0.246-7.794-1.651-9.521-6.04c-1.518-3.857-1.392-7.455,1.084-10.869c1.43-1.971,3.232-3.365,5.739-3.572
		c3.645-0.303,7.293-0.784,10.941-0.792c30.306-0.064,60.613-0.036,90.919-0.036C301.226,293.683,301.226,293.627,301.226,293.572z"
		/>
	<path fill-rule="evenodd" clip-rule="evenodd" fill="#525252" d="M299.352,357.743c28.831-0.004,57.661-0.039,86.491,0.031
		c4.486,0.012,8.985,0.366,13.455,0.807c5.061,0.499,8.593,4.326,8.835,9.204c0.255,5.148-2.844,10.099-7.739,10.727
		c-6.912,0.888-13.931,1.273-20.905,1.286c-52.994,0.102-105.988,0.088-158.982,0.027c-6.322-0.008-12.675-0.208-18.958-0.86
		c-8.63-0.896-12.824-9.632-8.189-16.452c1.466-2.158,3.335-3.728,6.053-3.955c3.482-0.29,6.966-0.769,10.451-0.775
		C239.692,357.72,269.522,357.747,299.352,357.743z"/>
	<path fill-rule="evenodd" clip-rule="evenodd" fill="#525252" d="M256.662,421.699c15.652,0,31.305-0.035,46.958,0.033
		c2.646,0.012,5.328,0.272,7.93,0.76c4.942,0.925,7.342,4.315,7.753,9.1c0.437,5.073-2.374,9.538-6.979,10.809
		c-5.328,1.47-10.898,1.373-16.352,1.405c-26.975,0.155-53.952,0.097-80.927,0.033c-4.321-0.01-8.646-0.358-12.959-0.678
		c-6.401-0.475-10.174-4.124-10.419-9.915c-0.28-6.619,2.567-9.799,9.588-10.828c8.782-1.288,17.62-0.714,26.434-0.819
		c9.657-0.115,19.316-0.025,28.974-0.025C256.662,421.615,256.662,421.657,256.662,421.699z"/>
</g>
</svg>
