<?xml version="1.0" encoding="utf-8"?>
<!-- Generator: Adobe Illustrator 16.0.0, SVG Export Plug-In . SVG Version: 6.00 Build 0)  -->
<!DOCTYPE svg PUBLIC "-//W3C//DTD SVG 1.1//EN" "http://www.w3.org/Graphics/SVG/1.1/DTD/svg11.dtd">
<svg version="1.1" id="Layer_1" xmlns="http://www.w3.org/2000/svg" xmlns:xlink="http://www.w3.org/1999/xlink" x="0px" y="0px"
	 width="140px" height="32px" viewBox="0 0 140 32" enable-background="new 0 0 140 32" xml:space="preserve">
<path fill="none" stroke="#FFFFFF" stroke-width="2" stroke-miterlimit="10" d="M8.414,27.795V4.497c0,0,1.901,0,6.638,0
	c5.773,0,6.366,10.76,0,10.76c-6.119,0-6.657,0.009-6.657,0.009s2.794-0.009,6.657-0.009c9.227,0,9.918,12.534,0,12.534
	L8.414,27.795z"/>
<polyline fill="none" stroke="#FFFFFF" stroke-width="2" stroke-miterlimit="10" points="33.555,22.706 29.016,22.706 29.016,8.494 
	33.555,8.494 "/>
<line fill="none" stroke="#FFFFFF" stroke-width="2" stroke-miterlimit="10" x1="29.115" y1="15.798" x2="33.556" y2="15.798"/>
<path fill="none" stroke="#FFFFFF" stroke-width="2" stroke-miterlimit="10" d="M59.55,25.027c-2.044,1.634-4.65,2.611-7.49,2.611
	c-6.567,0-11.893-5.234-11.893-11.695c0-6.458,5.325-11.694,11.893-11.694c3.12,0,5.961,1.182,8.083,3.115"/>
<path fill="none" stroke="#FFFFFF" stroke-width="2" stroke-linejoin="round" stroke-miterlimit="10" d="M49.604,11.899h4.479
	l-3.312,3.312l0.451-0.105c1.525,0,2.763,1.326,2.763,2.96c0,1.636-1.237,2.961-2.763,2.961c-0.954,0-1.795-0.519-2.291-1.305"/>
</svg>
