<?xml version="1.0" encoding="utf-8"?>
<!-- Generator: Adobe Illustrator 16.0.0, SVG Export Plug-In . SVG Version: 6.00 Build 0)  -->
<!DOCTYPE svg PUBLIC "-//W3C//DTD SVG 1.1//EN" "http://www.w3.org/Graphics/SVG/1.1/DTD/svg11.dtd">
<svg version="1.1" id="Calque_1" xmlns="http://www.w3.org/2000/svg" xmlns:xlink="http://www.w3.org/1999/xlink" x="0px" y="0px"
	 width="843px" height="567px" viewBox="0 0 843 567" enable-background="new 0 0 843 567" xml:space="preserve">
<g id="Browser">
	<rect x="2.991" y="1" fill="#FFFFFF" width="836.009" height="560"/>
	<rect fill="#1B1E3B" width="8.51" height="567"/>
	<rect fill="#1B1E3B" width="842" height="12.637"/>
	<rect x="834.49" y="-0.826" fill="#1B1E3B" width="8.51" height="567.826"/>
	<rect x="2.5" y="558.49" fill="#1B1E3B" width="837.826" height="8.51"/>
	<g id="Top_Background">
		<g>
			<path fill="#FCC020" d="M830.99,0H12.547c-2.174,0-3.935,3.241-3.935,7.238v65.144h826.314V7.238
				C834.926,3.241,833.164,0,830.99,0z"/>
		</g>
	</g>
	<g id="URL_Background">
		<g>
			<path fill="#FFFFFF" d="M821.193,18.095H97.17c-1.094,0-1.981,1.621-1.981,3.619v28.953c0,1.999,0.887,3.619,1.981,3.619h724.023
				c1.094,0,1.979-1.621,1.979-3.619V21.714C823.174,19.716,822.287,18.095,821.193,18.095z"/>
		</g>
	</g>
	<g id="Circle">
		<g>
			<ellipse fill="#1B1E3B" cx="51" cy="36.191" rx="5" ry="9.048"/>
		</g>
	</g>
	<g id="Circle_1_">
		<g>
			<ellipse fill="#1B1E3B" cx="36" cy="36.191" rx="5" ry="9.048"/>
		</g>
	</g>
	<g id="Circle_2_">
		<g>
			<ellipse fill="#1B1E3B" cx="21" cy="36.191" rx="5" ry="9.048"/>
		</g>
	</g>
	<g>
		<path fill="#1B1E3B" d="M115.682,43.604h-1.811v-7.015c0-1.733-0.356-2.6-1.068-2.6c-0.507,0-0.873,0.312-1.099,0.935
			s-0.338,1.633-0.338,3.029v5.65h-1.811V26.889h1.811v3.405c0,0.265-0.014,0.888-0.042,1.869l-0.042,0.967h0.095
			c0.403-1.174,1.044-1.762,1.923-1.762c0.78,0,1.371,0.38,1.775,1.139c0.404,0.759,0.605,1.848,0.605,3.266v7.831H115.682z"/>
		<path fill="#1B1E3B" d="M120.95,41.208c0.316,0,0.696-0.125,1.14-0.376v2.438c-0.451,0.365-1.005,0.548-1.662,0.548
			c-0.725,0-1.252-0.331-1.582-0.994c-0.331-0.662-0.496-1.656-0.496-2.981v-5.79h-0.867v-1.386l0.998-1.096l0.522-2.535h1.158
			v2.557h1.858v2.46h-1.858v5.79c0,0.466,0.072,0.81,0.216,1.031C120.521,41.098,120.712,41.208,120.95,41.208z"/>
		<path fill="#1B1E3B" d="M126.836,41.208c0.316,0,0.696-0.125,1.14-0.376v2.438c-0.451,0.365-1.005,0.548-1.662,0.548
			c-0.725,0-1.252-0.331-1.582-0.994c-0.331-0.662-0.496-1.656-0.496-2.981v-5.79h-0.867v-1.386l0.998-1.096l0.522-2.535h1.158
			v2.557h1.858v2.46h-1.858v5.79c0,0.466,0.072,0.81,0.216,1.031C126.407,41.098,126.598,41.208,126.836,41.208z"/>
		<path fill="#1B1E3B" d="M133.57,43.819c-0.78,0-1.391-0.512-1.834-1.536h-0.095c0.063,1.003,0.095,1.583,0.095,1.74v4.866h-1.811
			V31.594h1.472l0.255,1.558h0.083c0.424-1.188,1.051-1.783,1.882-1.783c0.784,0,1.397,0.548,1.84,1.644
			c0.443,1.096,0.665,2.618,0.665,4.565c0,1.282-0.104,2.396-0.312,3.341c-0.208,0.945-0.504,1.665-0.888,2.159
			C134.538,43.572,134.088,43.819,133.57,43.819z M133.036,33.99c-0.447,0-0.774,0.249-0.979,0.747
			c-0.206,0.498-0.312,1.32-0.321,2.465v0.354c0,1.289,0.106,2.213,0.318,2.771c0.211,0.559,0.547,0.838,1.006,0.838
			c0.811,0,1.217-1.21,1.217-3.631c0-1.182-0.1-2.068-0.3-2.659C133.777,34.284,133.463,33.99,133.036,33.99z"/>
		<path fill="#1B1E3B" d="M137.971,33.195c0-0.602,0.089-1.056,0.268-1.364c0.178-0.308,0.437-0.462,0.777-0.462
			c0.329,0,0.583,0.158,0.763,0.473c0.18,0.315,0.27,0.767,0.27,1.354c0,0.58-0.092,1.03-0.276,1.348
			c-0.184,0.319-0.436,0.478-0.757,0.478c-0.333,0-0.59-0.157-0.771-0.473C138.062,34.233,137.971,33.782,137.971,33.195z
			 M137.971,42.068c0-0.602,0.089-1.056,0.268-1.364c0.178-0.308,0.437-0.462,0.777-0.462c0.329,0,0.583,0.158,0.763,0.473
			c0.18,0.315,0.27,0.767,0.27,1.354c0,0.566-0.091,1.012-0.273,1.337c-0.182,0.326-0.435,0.489-0.76,0.489
			c-0.333,0-0.59-0.16-0.771-0.478C138.062,43.098,137.971,42.648,137.971,42.068z"/>
		<path fill="#1B1E3B" d="M146.314,27.899l-3.235,15.705h-1.645l3.235-15.705H146.314z"/>
		<path fill="#1B1E3B" d="M151.944,27.899l-3.235,15.705h-1.645l3.235-15.705H151.944z"/>
		<path fill="#1B1E3B" d="M157.253,31.369c0.784,0,1.397,0.553,1.84,1.66c0.443,1.106,0.665,2.623,0.665,4.549
			c0,1.984-0.229,3.52-0.686,4.608c-0.457,1.089-1.08,1.633-1.867,1.633c-0.78,0-1.391-0.512-1.834-1.536h-0.125l-0.303,1.321
			h-1.383V26.889h1.811v3.889c0,0.494-0.023,1.286-0.071,2.374h0.071C155.795,31.963,156.422,31.369,157.253,31.369z M156.672,33.99
			c-0.447,0-0.774,0.249-0.979,0.747c-0.206,0.498-0.312,1.32-0.321,2.465v0.354c0,1.289,0.106,2.213,0.318,2.771
			c0.211,0.559,0.547,0.838,1.006,0.838c0.372,0,0.667-0.31,0.887-0.929c0.22-0.619,0.33-1.52,0.33-2.702
			c0-1.182-0.111-2.068-0.333-2.659C157.358,34.284,157.056,33.99,156.672,33.99z"/>
		<path fill="#1B1E3B" d="M164.867,43.819c-1.068,0-1.904-0.533-2.505-1.601c-0.602-1.067-0.902-2.578-0.902-4.533
			c0-2.012,0.278-3.568,0.834-4.667s1.325-1.649,2.306-1.649c0.938,0,1.668,0.483,2.19,1.45c0.522,0.967,0.784,2.303,0.784,4.007
			v1.59h-4.28c0.02,0.931,0.172,1.658,0.457,2.181s0.685,0.784,1.199,0.784c0.4,0,0.778-0.075,1.134-0.226
			c0.356-0.15,0.729-0.39,1.116-0.72v2.535c-0.316,0.287-0.655,0.5-1.015,0.639C165.825,43.749,165.385,43.819,164.867,43.819z
			 M164.611,33.7c-0.384,0-0.685,0.22-0.902,0.661s-0.342,1.065-0.374,1.875h2.541c-0.008-0.809-0.125-1.434-0.35-1.875
			S164.995,33.7,164.611,33.7z"/>
		<path fill="#1B1E3B" d="M172.349,43.819c-2.066,0-3.099-2.052-3.099-6.155c0-2.041,0.281-3.6,0.843-4.678
			c0.562-1.078,1.367-1.617,2.416-1.617c0.768,0,1.457,0.272,2.066,0.816l-0.534,2.535c-0.285-0.208-0.55-0.377-0.795-0.51
			c-0.246-0.132-0.491-0.199-0.736-0.199c-0.942,0-1.413,1.21-1.413,3.631c0,2.349,0.471,3.523,1.413,3.523
			c0.348,0,0.671-0.084,0.968-0.252s0.594-0.431,0.891-0.79v2.804c-0.293,0.337-0.589,0.569-0.888,0.698
			S172.804,43.819,172.349,43.819z"/>
		<path fill="#1B1E3B" d="M181.778,31.412c0,0.981-0.164,1.815-0.493,2.503c-0.329,0.688-0.79,1.16-1.383,1.418v0.064
			c0.701,0.158,1.231,0.542,1.591,1.155c0.36,0.612,0.54,1.438,0.54,2.476c0,1.511-0.303,2.688-0.908,3.529
			c-0.605,0.842-1.47,1.262-2.594,1.262c-0.942,0-1.777-0.283-2.505-0.849v-2.825c0.336,0.308,0.707,0.559,1.11,0.752
			c0.403,0.193,0.803,0.29,1.199,0.29c0.605,0,1.053-0.186,1.341-0.559c0.289-0.372,0.434-0.97,0.434-1.794
			c0-0.737-0.167-1.26-0.499-1.568c-0.333-0.308-0.863-0.462-1.591-0.462h-0.659v-2.546h0.671c0.672,0,1.164-0.159,1.475-0.478
			c0.311-0.318,0.466-0.865,0.466-1.638c0-1.188-0.412-1.783-1.235-1.783c-0.285,0-0.575,0.086-0.87,0.258
			c-0.295,0.172-0.622,0.469-0.982,0.892l-0.849-2.288c0.792-1.031,1.735-1.547,2.832-1.547c0.898,0,1.608,0.33,2.128,0.988
			C181.518,29.321,181.778,30.237,181.778,31.412z"/>
		<path fill="#1B1E3B" d="M183.805,42.068c0-0.602,0.089-1.056,0.268-1.364c0.178-0.308,0.437-0.462,0.777-0.462
			c0.329,0,0.583,0.158,0.763,0.473c0.18,0.315,0.27,0.767,0.27,1.354c0,0.566-0.091,1.012-0.273,1.337
			c-0.182,0.326-0.435,0.489-0.76,0.489c-0.333,0-0.59-0.16-0.771-0.478C183.896,43.098,183.805,42.648,183.805,42.068z"/>
		<path fill="#1B1E3B" d="M190.83,43.819c-2.066,0-3.099-2.052-3.099-6.155c0-2.041,0.281-3.6,0.843-4.678
			c0.562-1.078,1.367-1.617,2.416-1.617c0.768,0,1.457,0.272,2.066,0.816l-0.534,2.535c-0.285-0.208-0.55-0.377-0.795-0.51
			c-0.246-0.132-0.491-0.199-0.736-0.199c-0.942,0-1.413,1.21-1.413,3.631c0,2.349,0.471,3.523,1.413,3.523
			c0.348,0,0.671-0.084,0.968-0.252s0.594-0.431,0.891-0.79v2.804c-0.293,0.337-0.589,0.569-0.888,0.698
			C191.663,43.754,191.285,43.819,190.83,43.819z"/>
		<path fill="#1B1E3B" d="M201.026,37.578c0,1.955-0.285,3.484-0.855,4.587c-0.57,1.103-1.363,1.654-2.38,1.654
			c-0.637,0-1.199-0.252-1.686-0.757s-0.861-1.23-1.122-2.175c-0.261-0.945-0.392-2.048-0.392-3.309
			c0-1.962,0.283-3.487,0.849-4.576c0.566-1.088,1.361-1.633,2.387-1.633c0.637,0,1.199,0.251,1.686,0.752
			c0.487,0.501,0.861,1.221,1.122,2.159C200.895,35.218,201.026,36.317,201.026,37.578z M196.437,37.578
			c0,1.189,0.107,2.088,0.323,2.696c0.216,0.609,0.567,0.913,1.054,0.913c0.483,0,0.83-0.302,1.042-0.908
			c0.211-0.605,0.317-1.505,0.317-2.702c0-1.188-0.106-2.08-0.32-2.675c-0.214-0.594-0.564-0.892-1.051-0.892
			c-0.483,0-0.831,0.295-1.045,0.886C196.543,35.487,196.437,36.382,196.437,37.578z"/>
		<path fill="#1B1E3B" d="M209.072,43.604h-1.811v-7.015c0-0.866-0.08-1.516-0.24-1.95c-0.161-0.433-0.413-0.65-0.757-0.65
			c-0.463,0-0.8,0.308-1.009,0.924c-0.21,0.616-0.315,1.629-0.315,3.04v5.65h-1.811v-12.01h1.383l0.243,1.536h0.101
			c0.178-0.551,0.436-0.983,0.772-1.294s0.722-0.467,1.157-0.467c0.994,0,1.667,0.587,2.019,1.762h0.16
			c0.178-0.559,0.44-0.992,0.787-1.3c0.346-0.308,0.737-0.462,1.172-0.462c0.752,0,1.321,0.349,1.707,1.047
			c0.386,0.698,0.579,1.817,0.579,3.357v7.831h-1.816v-7.015c0-0.866-0.08-1.516-0.24-1.95c-0.161-0.433-0.413-0.65-0.757-0.65
			c-0.443,0-0.774,0.287-0.994,0.859c-0.22,0.573-0.33,1.482-0.33,2.729V43.604L209.072,43.604z"/>
		<path fill="#1B1E3B" d="M219.688,27.899l-3.235,15.705h-1.645l3.235-15.705H219.688z"/>
	</g>
</g>
<g id="Scene">
	<g id="Light-ICON">
		<path fill="#1B1F3B" d="M627.455,201.163c1.821,0.374,3.668,0.651,5.459,1.137c12.151,3.298,21.289,13.987,22.411,26.53
			c1.132,12.648-3.892,22.434-14.406,29.442c-0.681,0.454-0.918,0.893-0.904,1.694c0.051,3.127,0.024,6.255,0.021,9.384
			c-0.007,3.422-2.716,6.125-6.147,6.128c-6.226,0.004-12.448,0.005-18.674,0c-3.434-0.003-6.137-2.703-6.143-6.132
			c-0.005-3.192-0.016-6.385,0.012-9.578c0.005-0.638-0.157-1.021-0.737-1.392c-8.722-5.59-13.725-13.511-14.697-23.857
			c-1.438-15.312,9.671-29.96,24.792-32.781c1.068-0.199,2.141-0.384,3.211-0.576C623.584,201.163,625.52,201.163,627.455,201.163z
			 M633.842,269.246c0-0.44,0-0.792,0-1.142c0-4.032,0.014-8.063-0.014-12.096c-0.004-0.587,0.148-0.943,0.683-1.221
			c0.914-0.475,1.794-1.016,2.681-1.543c8.588-5.117,13.296-14.792,11.896-24.439c-2.081-14.337-15.438-23.847-29.642-20.834
			c-9.133,1.938-15.388,7.575-18.332,16.41c-2.928,8.779-1.151,16.848,4.843,23.937c2.352,2.782,5.373,4.695,8.526,6.416
			c0.579,0.317,0.804,0.67,0.798,1.346c-0.034,4.032-0.018,8.062-0.018,12.095c0,0.345,0,0.688,0,1.071
			C621.485,269.246,627.6,269.246,633.842,269.246z"/>
		<path fill="#1B1F3B" d="M620.101,300.252c-0.521-0.229-1.055-0.427-1.558-0.689c-1.975-1.033-3.044-2.776-3.347-5.4
			c-2.087-0.461-3.086-1.562-3.034-3.34c0.047-1.635,1.326-2.944,2.968-2.948c6.281-0.017,12.562-0.015,18.843-0.001
			c1.473,0.003,2.746,1.146,2.951,2.562c0.225,1.537-0.6,2.959-2.018,3.451c-0.325,0.112-0.667,0.176-1.027,0.269
			c-0.159,3.202-1.998,5.067-4.876,6.098C626.035,300.252,623.068,300.252,620.101,300.252z"/>
		<path fill="#1B1F3B" d="M624.553,284.77c-3.031,0-6.063,0.002-9.097,0c-1.979-0.002-3.297-1.256-3.29-3.121
			c0.008-1.813,1.326-3.07,3.241-3.071c6.097-0.003,12.191-0.003,18.288,0c1.918,0.001,3.234,1.257,3.243,3.071
			c0.007,1.864-1.312,3.119-3.29,3.121C630.616,284.771,627.584,284.77,624.553,284.77z"/>
		<line fill="none" stroke="#1B1E3B" stroke-width="4" stroke-miterlimit="10" x1="665.334" y1="206.708" x2="684" y2="193.292"/>
		<line fill="none" stroke="#1B1E3B" stroke-width="4" stroke-miterlimit="10" x1="667.024" y1="264.661" x2="688.31" y2="273.34"/>
		<line fill="none" stroke="#1B1E3B" stroke-width="4" stroke-miterlimit="10" x1="584.31" y1="269.661" x2="563.024" y2="278.34"/>
		<line fill="none" stroke="#1B1E3B" stroke-width="4" stroke-miterlimit="10" x1="584" y1="208.708" x2="565.334" y2="195.293"/>
		<g>
			<path fill="#1A1E3A" d="M592.355,355.434h4.19v18.016h5.535V377h-9.728v-21.566H592.355z"/>
			<path fill="#1A1E3A" d="M608.706,355.434V377h-4.191v-21.566H608.706z"/>
			<path fill="#1A1E3A" d="M624.417,376.424c-0.928,0.385-2.911,0.77-4.479,0.77c-2.464,0-4.319-0.704-5.76-2.146
				c-1.854-1.792-2.848-4.991-2.783-8.702c0.097-7.841,4.575-11.104,9.15-11.104c1.633,0,2.849,0.319,3.521,0.641l-0.736,3.615
				c-0.608-0.319-1.407-0.479-2.464-0.479c-2.849,0-5.119,1.951-5.119,7.584c0,5.184,2.016,7.039,3.967,7.039
				c0.385,0,0.673-0.031,0.832-0.097v-5.215h-1.92v-3.424h5.792L624.417,376.424L624.417,376.424z"/>
			<path fill="#1A1E3A" d="M631.745,355.434v8.641h4.384v-8.641h4.191V377h-4.191v-9.023h-4.384V377h-4.191v-21.566H631.745z"/>
			<path fill="#1A1E3A" d="M646.369,359.307h-3.809v-3.873h11.84v3.873h-3.841V377h-4.19V359.307z"/>
		</g>
	</g>
	<g id="Arrow-ICON">
		<g id="Arrow">
			<g>
				<line fill="none" stroke="#1B1E3B" stroke-width="4" stroke-linejoin="round" x1="290" y1="240" x2="537.085" y2="240"/>
				<g>
					<rect x="288" y="227" fill="#1B1E3B" width="4" height="26"/>
				</g>
				<g>
					<rect x="535.085" y="227" fill="#1B1E3B" width="4" height="26"/>
				</g>
			</g>
		</g>
	</g>
	<g id="Button-ICON">
		
			<circle id="Button_1_" fill="#1B1E3B" stroke="#1B1E3B" stroke-width="2" stroke-linejoin="round" stroke-miterlimit="10" cx="187" cy="239" r="47"/>
		<g>
			<path fill="#1A1E3A" d="M140.357,355.254c1.28-0.288,2.944-0.416,4.768-0.416c2.016,0,3.968,0.256,5.472,1.535
				c1.152,0.96,1.632,2.4,1.632,3.904c0,1.92-0.992,3.774-3.136,4.703v0.127c2.496,0.705,3.84,2.785,3.84,5.152
				c0,1.792-0.576,3.167-1.6,4.225c-1.28,1.406-3.456,2.176-7.071,2.176c-1.6,0-2.944-0.096-3.904-0.225L140.357,355.254
				L140.357,355.254z M144.549,363.797h0.896c1.504,0,2.656-1.279,2.656-3.04c0-1.567-0.736-2.782-2.464-2.782
				c-0.448,0-0.832,0.03-1.088,0.127V363.797z M144.549,373.364c0.256,0.062,0.544,0.062,0.928,0.062
				c1.696,0,3.104-1.022,3.104-3.231c0-2.144-1.472-3.264-3.136-3.295h-0.896V373.364z"/>
			<path fill="#1A1E3A" d="M159.876,354.934v14.016c0,3.168,0.96,4.128,2.048,4.128c1.216,0,2.08-0.864,2.08-4.128v-14.016h4.191
				v13.279c0,5.535-2.08,8.543-6.239,8.543c-4.512,0-6.271-3.104-6.271-8.512v-13.311H159.876L159.876,354.934z"/>
			<path fill="#1A1E3A" d="M174.149,358.807h-3.808v-3.873h11.839v3.873h-3.84V376.5h-4.191V358.807L174.149,358.807z"/>
			<path fill="#1A1E3A" d="M187.172,358.807h-3.808v-3.873h11.839v3.873h-3.84V376.5h-4.191V358.807L187.172,358.807z"/>
			<path fill="#1A1E3A" d="M209.731,365.333c0,8.127-2.88,11.423-6.976,11.423c-4.896,0-6.815-5.184-6.815-11.104
				c0-5.887,2.336-10.976,7.104-10.976C208.26,354.678,209.731,360.404,209.731,365.333z M200.292,365.717
				c0,4.896,0.928,7.393,2.624,7.393c1.76,0,2.432-3.2,2.432-7.584c0-3.775-0.576-7.199-2.463-7.199
				C201.22,358.325,200.292,361.077,200.292,365.717z"/>
			<path fill="#1A1E3A" d="M212.388,376.5v-21.566h3.84l3.328,8.447c0.64,1.664,1.696,4.448,2.304,6.305h0.064
				c-0.128-2.271-0.416-6.017-0.416-9.983v-4.769h3.68V376.5h-3.839l-3.296-8.191c-0.704-1.824-1.696-4.543-2.176-6.494h-0.064
				c0.096,2.176,0.256,5.502,0.256,9.822v4.863H212.388z"/>
		</g>
	</g>
	<g id="Run-ICON">
		<rect x="340.094" y="460.082" fill="#1A1E3A" width="181.491" height="56.997"/>
		<g>
			<path fill="#FCBF22" d="M393.447,477.834c1.312-0.256,2.976-0.416,4.576-0.416c2.304,0,4.352,0.32,5.759,1.6
				c1.312,1.185,1.695,2.623,1.695,4.479c0,2.304-1.119,4.384-3.327,5.407v0.063c1.472,0.576,2.208,1.952,2.624,4.256
				c0.416,2.4,0.991,5.057,1.376,5.855h-4.385c-0.256-0.607-0.735-2.783-1.056-5.152c-0.384-2.688-1.056-3.455-2.464-3.455h-0.608
				v8.607h-4.19V477.834z M397.638,487.24h0.736c1.824,0,2.879-1.472,2.879-3.359c0-1.824-0.736-3.135-2.624-3.199
				c-0.352,0-0.768,0.031-0.992,0.128L397.638,487.24L397.638,487.24z"/>
			<path fill="#FCBF22" d="M412.55,477.514v14.017c0,3.167,0.96,4.127,2.048,4.127c1.217,0,2.08-0.863,2.08-4.127v-14.017h4.191
				v13.279c0,5.535-2.08,8.543-6.239,8.543c-4.512,0-6.271-3.104-6.271-8.512v-13.312L412.55,477.514L412.55,477.514z"/>
			<path fill="#FCBF22" d="M424.486,499.08v-21.566h3.84l3.328,8.447c0.639,1.664,1.694,4.447,2.303,6.304h0.064
				c-0.129-2.271-0.416-6.016-0.416-9.982v-4.769h3.68v21.566h-3.84l-3.295-8.191c-0.705-1.824-1.696-4.543-2.177-6.496h-0.063
				c0.096,2.177,0.256,5.504,0.256,9.824v4.863H424.486L424.486,499.08z"/>
		</g>
		<polygon fill="#FCBF22" points="469.094,500.197 469.094,476.992 484,488.03 		"/>
	</g>
</g>
</svg>
