<?xml version="1.0" encoding="utf-8"?>
<!-- Generator: Adobe Illustrator 16.0.0, SVG Export Plug-In . SVG Version: 6.00 Build 0)  -->
<!DOCTYPE svg PUBLIC "-//W3C//DTD SVG 1.1//EN" "http://www.w3.org/Graphics/SVG/1.1/DTD/svg11.dtd">
<svg version="1.1" id="Calque_1" xmlns="http://www.w3.org/2000/svg" xmlns:xlink="http://www.w3.org/1999/xlink" x="0px" y="0px"
	 width="327.194px" height="458.408px" viewBox="-0.183 -0.826 327.194 458.408"
	 enable-background="new -0.183 -0.826 327.194 458.408" xml:space="preserve">
<g id="Calque_1_1_">
	<g id="Browser">
		<rect x="2.448" y="1" fill="#FFFFFF" width="323.277" height="454.667"/>
		<rect x="-0.085" fill="#212E64" width="2.71" height="457"/>
		<rect x="-0.015" y="-1.076" fill="#212E64" width="325.192" height="13.713"/>
		<rect x="323.433" y="-0.826" fill="#212E64" width="3.567" height="458.243"/>
		<rect x="-0.183" y="453.739" fill="#212E64" width="327.194" height="3.843"/>
		<g id="Top_Background">
			<g>
				<path fill="#FCC020" d="M321.914,0H4.177C3.334,0,2.65,3.241,2.65,7.238v65.144h320.792V7.238
					C323.441,3.241,322.758,0,321.914,0z"/>
			</g>
		</g>
		<g id="URL_Background">
			<g>
				<path fill="#FFFFFF" d="M297.08,18.095H78.948c-0.33,0-0.597,1.621-0.597,3.619v28.953c0,1.999,0.267,3.619,0.597,3.619H297.08
					c0.33,0,0.596-1.621,0.596-3.619V21.714C297.676,19.716,297.409,18.095,297.08,18.095z"/>
			</g>
			<g>
				<path fill="#212E64" d="M92.281,29.805h1.447v6.219c0.515-0.562,1.083-0.844,1.704-0.844c0.707,0,1.273,0.279,1.698,0.836
					c0.36,0.484,0.54,1.258,0.54,2.32V43h-1.447v-4.5c0-0.609-0.089-1.051-0.267-1.324c-0.178-0.273-0.465-0.41-0.859-0.41
					c-0.506,0-0.862,0.19-1.068,0.57c-0.202,0.386-0.302,1.047-0.302,1.984V43H92.28L92.281,29.805L92.281,29.805z"/>
				<path fill="#212E64" d="M100.996,37.031V43h-1.447v-5.969h-0.617V35.39h0.617v-2.789h1.447v2.789h1.125v1.641H100.996z"/>
				<path fill="#212E64" d="M104.598,37.031V43h-1.447v-5.969h-0.618V35.39h0.618v-2.789h1.447v2.789h1.125v1.641H104.598z"/>
				<path fill="#212E64" d="M108.155,47.141h-1.448v-11.75h1.448v0.828c0.569-0.692,1.217-1.039,1.942-1.039
					c0.862,0,1.572,0.386,2.129,1.156c0.566,0.766,0.849,1.732,0.849,2.898c0,1.141-0.281,2.091-0.842,2.852
					c-0.558,0.755-1.261,1.133-2.109,1.133c-0.733,0-1.39-0.356-1.968-1.07V47.141z M111.595,39.242
					c0-0.729-0.163-1.323-0.489-1.781c-0.33-0.463-0.746-0.695-1.248-0.695c-0.532,0-0.962,0.224-1.292,0.672
					c-0.331,0.448-0.496,1.037-0.496,1.766c0,0.714,0.165,1.302,0.496,1.766c0.326,0.453,0.755,0.68,1.286,0.68
					c0.501,0,0.915-0.229,1.241-0.688C111.429,40.503,111.595,39.93,111.595,39.242z"/>
				<path fill="#212E64" d="M114.831,36.25c0-0.286,0.087-0.536,0.263-0.75c0.176-0.213,0.386-0.32,0.631-0.32
					c0.244,0,0.455,0.107,0.63,0.32c0.175,0.214,0.264,0.469,0.264,0.766c0,0.302-0.088,0.56-0.264,0.773
					c-0.171,0.208-0.382,0.312-0.63,0.312s-0.461-0.106-0.637-0.32C114.917,36.823,114.831,36.562,114.831,36.25z M114.831,42.125
					c0-0.292,0.087-0.544,0.263-0.758c0.176-0.213,0.386-0.32,0.631-0.32c0.244,0,0.455,0.107,0.63,0.32
					c0.175,0.214,0.264,0.469,0.264,0.766c0,0.302-0.088,0.56-0.264,0.773c-0.171,0.208-0.382,0.312-0.63,0.312
					c-0.254,0-0.465-0.104-0.637-0.312C114.917,42.698,114.831,42.438,114.831,42.125z"/>
				<path fill="#212E64" d="M123.34,29.672l1.196,0.641l-5.686,15.984l-1.184-0.648L123.34,29.672z"/>
				<path fill="#212E64" d="M130.164,29.672l1.196,0.641l-5.686,15.984l-1.184-0.648L130.164,29.672z"/>
				<path fill="#212E64" d="M133.766,29.805v6.469c0.579-0.729,1.235-1.094,1.968-1.094c0.845,0,1.548,0.383,2.109,1.148
					c0.561,0.761,0.842,1.708,0.842,2.844c0,1.172-0.284,2.141-0.849,2.906c-0.562,0.761-1.271,1.141-2.129,1.141
					c-0.724,0-1.373-0.338-1.942-1.016V43h-1.447V29.805H133.766z M137.208,39.25c0-0.729-0.163-1.323-0.489-1.781
					c-0.33-0.469-0.744-0.703-1.241-0.703c-0.532,0-0.965,0.227-1.299,0.68c-0.33,0.448-0.496,1.031-0.496,1.75
					c0,0.74,0.163,1.331,0.489,1.773c0.326,0.453,0.755,0.68,1.286,0.68c0.501,0,0.917-0.227,1.248-0.68
					C137.04,40.511,137.208,39.938,137.208,39.25z"/>
				<path fill="#212E64" d="M145.922,39.609h-4.489c0.039,0.625,0.206,1.123,0.501,1.492c0.295,0.365,0.675,0.547,1.139,0.547
					c0.36,0,0.658-0.104,0.894-0.312c0.231-0.208,0.496-0.594,0.791-1.156l1.222,0.828c-0.188,0.391-0.389,0.726-0.599,1.004
					c-0.21,0.279-0.435,0.508-0.675,0.688c-0.24,0.18-0.5,0.311-0.778,0.395c-0.279,0.083-0.581,0.125-0.907,0.125
					c-0.936,0-1.686-0.364-2.251-1.094c-0.566-0.734-0.848-1.708-0.848-2.922c0-1.203,0.274-2.177,0.823-2.922
					c0.553-0.734,1.286-1.102,2.2-1.102c0.922,0,1.65,0.357,2.187,1.07c0.532,0.708,0.797,1.69,0.797,2.945L145.922,39.609z
					 M144.437,38.172c-0.202-0.938-0.688-1.406-1.46-1.406c-0.176,0-0.341,0.033-0.496,0.098c-0.155,0.065-0.294,0.159-0.421,0.281
					c-0.127,0.123-0.235,0.27-0.326,0.441s-0.159,0.367-0.206,0.586H144.437z"/>
				<path fill="#212E64" d="M152.379,35.719v2.336c-0.33-0.489-0.626-0.825-0.888-1.008c-0.257-0.188-0.56-0.281-0.907-0.281
					c-0.545,0-0.998,0.232-1.357,0.695c-0.36,0.464-0.54,1.044-0.54,1.742c0,0.714,0.173,1.3,0.521,1.758
					c0.352,0.458,0.799,0.688,1.344,0.688c0.348,0,0.654-0.091,0.919-0.273c0.257-0.177,0.56-0.521,0.907-1.031v2.32
					c-0.587,0.37-1.174,0.555-1.763,0.555c-0.969,0-1.779-0.38-2.431-1.141c-0.652-0.766-0.978-1.716-0.978-2.852
					c0-1.135,0.33-2.094,0.99-2.875c0.66-0.781,1.47-1.172,2.431-1.172C151.247,35.18,151.83,35.359,152.379,35.719z"/>
				<path fill="#212E64" d="M156.277,37.398v-1.555c0.635,0,1.061-0.086,1.28-0.258c0.39-0.302,0.585-0.786,0.585-1.453
					c0-0.516-0.142-0.935-0.425-1.258c-0.279-0.328-0.641-0.492-1.086-0.492c-0.416,0-0.738,0.123-0.965,0.367
					c-0.219,0.25-0.382,0.672-0.489,1.266h-1.492c0.155-1.135,0.472-1.967,0.952-2.496c0.48-0.528,1.151-0.793,2.013-0.793
					c0.87,0,1.58,0.312,2.129,0.938c0.549,0.62,0.823,1.419,0.823,2.398c0,1.104-0.361,1.964-1.08,2.578
					c0.823,0.589,1.235,1.544,1.235,2.867c0,1.083-0.3,1.969-0.9,2.656c-0.6,0.688-1.37,1.031-2.31,1.031
					c-1.196,0-2.083-0.534-2.662-1.602c-0.241-0.448-0.393-1.067-0.457-1.859h1.447c0.077,0.583,0.264,1.03,0.563,1.34
					c0.298,0.31,0.687,0.465,1.167,0.465c0.484,0,0.885-0.195,1.203-0.586c0.316-0.401,0.476-0.909,0.476-1.523
					c0-0.812-0.238-1.391-0.714-1.734C157.291,37.498,156.86,37.398,156.277,37.398z"/>
				<path fill="#212E64" d="M162.137,42.125c0-0.292,0.087-0.544,0.264-0.758c0.175-0.213,0.386-0.32,0.63-0.32
					s0.455,0.107,0.63,0.32c0.175,0.214,0.264,0.469,0.264,0.766c0,0.302-0.088,0.56-0.264,0.773
					c-0.171,0.208-0.382,0.312-0.63,0.312c-0.253,0-0.465-0.104-0.636-0.312C162.222,42.698,162.137,42.438,162.137,42.125z"/>
				<path fill="#212E64" d="M170.852,35.719v2.336c-0.33-0.489-0.626-0.825-0.888-1.008c-0.256-0.188-0.56-0.281-0.907-0.281
					c-0.545,0-0.997,0.232-1.357,0.695c-0.361,0.464-0.54,1.044-0.54,1.742c0,0.714,0.174,1.3,0.521,1.758
					c0.352,0.458,0.8,0.688,1.345,0.688c0.347,0,0.654-0.091,0.919-0.273c0.257-0.177,0.56-0.521,0.907-1.031v2.32
					c-0.588,0.37-1.175,0.555-1.762,0.555c-0.969,0-1.78-0.38-2.431-1.141c-0.652-0.766-0.978-1.716-0.978-2.852
					c0-1.135,0.33-2.094,0.99-2.875c0.661-0.781,1.471-1.172,2.431-1.172C169.72,35.18,170.303,35.359,170.852,35.719z"/>
				<path fill="#212E64" d="M171.958,39.141c0-1.099,0.323-2.034,0.971-2.805c0.647-0.771,1.437-1.156,2.367-1.156
					c0.935,0,1.728,0.388,2.38,1.164c0.643,0.776,0.965,1.729,0.965,2.859c0,1.141-0.324,2.097-0.971,2.867
					c-0.652,0.766-1.452,1.148-2.399,1.148c-0.939,0-1.727-0.391-2.36-1.172C172.275,41.276,171.958,40.308,171.958,39.141z
					 M173.438,39.172c0,0.761,0.167,1.362,0.501,1.805c0.343,0.448,0.795,0.672,1.357,0.672c0.566,0,1.019-0.221,1.356-0.664
					c0.338-0.442,0.508-1.034,0.508-1.773c0-0.739-0.17-1.331-0.508-1.773c-0.343-0.448-0.795-0.672-1.356-0.672
					c-0.553,0-1.001,0.224-1.345,0.672C173.609,37.886,173.438,38.464,173.438,39.172z"/>
				<path fill="#212E64" d="M180.171,35.391h1.447v0.703c0.278-0.354,0.516-0.594,0.714-0.719c0.21-0.13,0.473-0.195,0.791-0.195
					c0.707,0,1.267,0.375,1.679,1.125c0.454-0.75,1.069-1.125,1.846-1.125c1.41,0,2.116,1.039,2.116,3.117V43h-1.454v-4.227
					c0-0.729-0.073-1.245-0.219-1.547c-0.151-0.307-0.397-0.461-0.739-0.461c-0.398,0-0.689,0.183-0.872,0.547
					c-0.183,0.365-0.273,0.951-0.273,1.758V43h-1.454v-4.203c0-1.354-0.322-2.031-0.965-2.031c-0.408,0-0.704,0.185-0.891,0.555
					c-0.187,0.37-0.28,0.953-0.28,1.75V43h-1.447v-7.609H180.171z"/>
				<path fill="#212E64" d="M195.26,29.672l1.196,0.641l-5.685,15.984l-1.184-0.648L195.26,29.672z"/>
			</g>
			<g>
				<path fill="#212E64" d="M93.104,29.805h1.447v6.219c0.515-0.562,1.083-0.844,1.704-0.844c0.707,0,1.273,0.279,1.698,0.836
					c0.36,0.484,0.54,1.258,0.54,2.32V43h-1.447v-4.5c0-0.609-0.089-1.051-0.267-1.324c-0.178-0.273-0.465-0.41-0.859-0.41
					c-0.506,0-0.862,0.19-1.068,0.57c-0.202,0.386-0.302,1.047-0.302,1.984V43h-1.448L93.104,29.805L93.104,29.805z"/>
				<path fill="#212E64" d="M101.819,37.031V43h-1.447v-5.969h-0.618V35.39h0.618v-2.789h1.447v2.789h1.125v1.641H101.819z"/>
				<path fill="#212E64" d="M105.421,37.031V43h-1.447v-5.969h-0.618V35.39h0.618v-2.789h1.447v2.789h1.125v1.641H105.421z"/>
				<path fill="#212E64" d="M108.979,47.141h-1.448v-11.75h1.448v0.828c0.569-0.692,1.217-1.039,1.942-1.039
					c0.862,0,1.572,0.386,2.129,1.156c0.566,0.766,0.849,1.732,0.849,2.898c0,1.141-0.281,2.091-0.842,2.852
					c-0.558,0.755-1.261,1.133-2.109,1.133c-0.733,0-1.39-0.356-1.968-1.07V47.141z M112.418,39.242
					c0-0.729-0.163-1.323-0.489-1.781c-0.33-0.463-0.746-0.695-1.248-0.695c-0.532,0-0.962,0.224-1.292,0.672
					c-0.331,0.448-0.496,1.037-0.496,1.766c0,0.714,0.165,1.302,0.496,1.766c0.326,0.453,0.755,0.68,1.286,0.68
					c0.501,0,0.915-0.229,1.241-0.688C112.252,40.503,112.418,39.93,112.418,39.242z"/>
				<path fill="#212E64" d="M115.654,36.25c0-0.286,0.087-0.536,0.263-0.75c0.176-0.213,0.386-0.32,0.631-0.32
					c0.244,0,0.455,0.107,0.63,0.32c0.175,0.214,0.264,0.469,0.264,0.766c0,0.302-0.088,0.56-0.264,0.773
					c-0.171,0.208-0.382,0.312-0.63,0.312s-0.461-0.106-0.637-0.32C115.74,36.823,115.654,36.562,115.654,36.25z M115.654,42.125
					c0-0.292,0.087-0.544,0.263-0.758c0.176-0.213,0.386-0.32,0.631-0.32c0.244,0,0.455,0.107,0.63,0.32
					c0.175,0.214,0.264,0.469,0.264,0.766c0,0.302-0.088,0.56-0.264,0.773c-0.171,0.208-0.382,0.312-0.63,0.312
					c-0.254,0-0.465-0.104-0.637-0.312C115.74,42.698,115.654,42.438,115.654,42.125z"/>
				<path fill="#212E64" d="M124.164,29.672l1.196,0.641l-5.686,15.984l-1.184-0.648L124.164,29.672z"/>
				<path fill="#212E64" d="M130.987,29.672l1.196,0.641l-5.686,15.984l-1.184-0.648L130.987,29.672z"/>
				<path fill="#212E64" d="M134.589,29.805v6.469c0.579-0.729,1.235-1.094,1.968-1.094c0.845,0,1.548,0.383,2.109,1.148
					c0.561,0.761,0.842,1.708,0.842,2.844c0,1.172-0.284,2.141-0.849,2.906c-0.562,0.761-1.271,1.141-2.129,1.141
					c-0.724,0-1.373-0.338-1.942-1.016V43h-1.447V29.805H134.589z M138.031,39.25c0-0.729-0.163-1.323-0.489-1.781
					c-0.33-0.469-0.744-0.703-1.241-0.703c-0.532,0-0.965,0.227-1.299,0.68c-0.33,0.448-0.496,1.031-0.496,1.75
					c0,0.74,0.163,1.331,0.489,1.773c0.326,0.453,0.755,0.68,1.286,0.68c0.501,0,0.917-0.227,1.248-0.68
					C137.863,40.511,138.031,39.938,138.031,39.25z"/>
				<path fill="#212E64" d="M146.746,39.609h-4.489c0.039,0.625,0.206,1.123,0.501,1.492c0.295,0.365,0.675,0.547,1.139,0.547
					c0.36,0,0.658-0.104,0.894-0.312c0.231-0.208,0.496-0.594,0.791-1.156l1.222,0.828c-0.188,0.391-0.389,0.726-0.599,1.004
					c-0.209,0.279-0.435,0.508-0.675,0.688c-0.24,0.18-0.5,0.311-0.778,0.395c-0.279,0.083-0.581,0.125-0.907,0.125
					c-0.936,0-1.686-0.364-2.251-1.094c-0.566-0.734-0.849-1.708-0.849-2.922c0-1.203,0.274-2.177,0.823-2.922
					c0.553-0.734,1.286-1.102,2.2-1.102c0.922,0,1.65,0.357,2.187,1.07c0.532,0.708,0.798,1.69,0.798,2.945L146.746,39.609z
					 M145.26,38.172c-0.202-0.938-0.688-1.406-1.46-1.406c-0.176,0-0.341,0.033-0.496,0.098c-0.155,0.065-0.294,0.159-0.421,0.281
					c-0.127,0.123-0.235,0.27-0.325,0.441c-0.091,0.171-0.159,0.367-0.206,0.586H145.26z"/>
				<path fill="#212E64" d="M153.203,35.719v2.336c-0.33-0.489-0.626-0.825-0.888-1.008c-0.257-0.188-0.56-0.281-0.907-0.281
					c-0.545,0-0.998,0.232-1.357,0.695c-0.36,0.464-0.54,1.044-0.54,1.742c0,0.714,0.173,1.3,0.521,1.758
					c0.352,0.458,0.799,0.688,1.344,0.688c0.348,0,0.654-0.091,0.919-0.273c0.257-0.177,0.56-0.521,0.907-1.031v2.32
					c-0.587,0.37-1.174,0.555-1.763,0.555c-0.969,0-1.779-0.38-2.431-1.141c-0.652-0.766-0.978-1.716-0.978-2.852
					c0-1.135,0.33-2.094,0.99-2.875c0.66-0.781,1.47-1.172,2.431-1.172C152.07,35.18,152.653,35.359,153.203,35.719z"/>
				<path fill="#212E64" d="M157.101,37.398v-1.555c0.635,0,1.061-0.086,1.28-0.258c0.39-0.302,0.585-0.786,0.585-1.453
					c0-0.516-0.142-0.935-0.425-1.258c-0.279-0.328-0.642-0.492-1.087-0.492c-0.416,0-0.737,0.123-0.965,0.367
					c-0.219,0.25-0.382,0.672-0.489,1.266h-1.492c0.155-1.135,0.472-1.967,0.952-2.496c0.48-0.528,1.151-0.793,2.013-0.793
					c0.87,0,1.58,0.312,2.129,0.938c0.549,0.62,0.823,1.419,0.823,2.398c0,1.104-0.36,1.964-1.08,2.578
					c0.823,0.589,1.235,1.544,1.235,2.867c0,1.083-0.3,1.969-0.9,2.656c-0.6,0.688-1.37,1.031-2.31,1.031
					c-1.196,0-2.083-0.534-2.662-1.602c-0.241-0.448-0.393-1.067-0.457-1.859h1.447c0.077,0.583,0.264,1.03,0.563,1.34
					c0.298,0.31,0.687,0.465,1.167,0.465c0.484,0,0.885-0.195,1.203-0.586c0.316-0.401,0.476-0.909,0.476-1.523
					c0-0.812-0.238-1.391-0.714-1.734C158.114,37.498,157.684,37.398,157.101,37.398z"/>
				<path fill="#212E64" d="M162.96,42.125c0-0.292,0.087-0.544,0.264-0.758c0.175-0.213,0.386-0.32,0.63-0.32
					s0.455,0.107,0.631,0.32c0.175,0.214,0.263,0.469,0.263,0.766c0,0.302-0.088,0.56-0.263,0.773
					c-0.171,0.208-0.382,0.312-0.631,0.312c-0.253,0-0.465-0.104-0.636-0.312C163.045,42.698,162.96,42.438,162.96,42.125z"/>
				<path fill="#212E64" d="M171.675,35.719v2.336c-0.33-0.489-0.626-0.825-0.887-1.008c-0.257-0.188-0.56-0.281-0.907-0.281
					c-0.545,0-0.997,0.232-1.357,0.695c-0.361,0.464-0.54,1.044-0.54,1.742c0,0.714,0.174,1.3,0.521,1.758
					c0.352,0.458,0.8,0.688,1.345,0.688c0.347,0,0.654-0.091,0.919-0.273c0.257-0.177,0.56-0.521,0.907-1.031v2.32
					c-0.588,0.37-1.175,0.555-1.762,0.555c-0.969,0-1.78-0.38-2.431-1.141c-0.652-0.766-0.978-1.716-0.978-2.852
					c0-1.135,0.33-2.094,0.99-2.875c0.661-0.781,1.471-1.172,2.431-1.172C170.543,35.18,171.126,35.359,171.675,35.719z"/>
				<path fill="#212E64" d="M172.782,39.141c0-1.099,0.324-2.034,0.971-2.805c0.647-0.771,1.437-1.156,2.367-1.156
					c0.935,0,1.728,0.388,2.38,1.164c0.643,0.776,0.965,1.729,0.965,2.859c0,1.141-0.324,2.097-0.971,2.867
					c-0.652,0.766-1.452,1.148-2.399,1.148c-0.939,0-1.727-0.391-2.36-1.172C173.099,41.276,172.782,40.308,172.782,39.141z
					 M174.261,39.172c0,0.761,0.167,1.362,0.501,1.805c0.343,0.448,0.795,0.672,1.357,0.672c0.566,0,1.019-0.221,1.356-0.664
					c0.338-0.442,0.508-1.034,0.508-1.773c0-0.739-0.17-1.331-0.508-1.773c-0.343-0.448-0.795-0.672-1.356-0.672
					c-0.553,0-1.001,0.224-1.344,0.672C174.432,37.886,174.261,38.464,174.261,39.172z"/>
				<path fill="#212E64" d="M180.995,35.391h1.447v0.703c0.278-0.354,0.516-0.594,0.714-0.719c0.21-0.13,0.473-0.195,0.791-0.195
					c0.707,0,1.267,0.375,1.679,1.125c0.454-0.75,1.069-1.125,1.846-1.125c1.41,0,2.116,1.039,2.116,3.117V43h-1.454v-4.227
					c0-0.729-0.073-1.245-0.219-1.547c-0.151-0.307-0.397-0.461-0.739-0.461c-0.398,0-0.689,0.183-0.872,0.547
					c-0.183,0.365-0.273,0.951-0.273,1.758V43h-1.454v-4.203c0-1.354-0.322-2.031-0.965-2.031c-0.408,0-0.704,0.185-0.891,0.555
					c-0.187,0.37-0.28,0.953-0.28,1.75V43h-1.447v-7.609H180.995z"/>
				<path fill="#212E64" d="M196.083,29.672l1.196,0.641l-5.685,15.984l-1.184-0.648L196.083,29.672z"/>
			</g>
		</g>
		<ellipse fill="#212E64" cx="59.26" cy="36" rx="6.998" ry="8.5"/>
		<ellipse fill="#212E64" cx="18.92" cy="36" rx="6.998" ry="8.5"/>
		<ellipse fill="#212E64" cx="39.09" cy="36" rx="6.998" ry="8.5"/>
	</g>
</g>
<g id="Calque_3">
	<g id="Light-ICON">
		<polygon fill="#FCC020" points="265.028,214.151 257.859,213.962 257.859,204.905 250.5,198.867 248.991,189.622 251.066,182.452 
			256.35,178.679 261.255,176.037 267.104,175.849 272.198,177.546 276.916,181.131 279.557,187.357 280.501,196.415 
			276.539,201.321 274.085,205.094 272.198,205.094 272.198,212.075 271.445,213.396 		"/>
		<path fill="#212E64" d="M266.186,173.792c1.03,0.211,2.076,0.368,3.09,0.644c6.877,1.867,12.05,7.917,12.685,15.017
			c0.642,7.16-2.206,12.699-8.154,16.667c-0.385,0.256-0.52,0.505-0.512,0.958c0.032,1.77,0.014,3.541,0.012,5.312
			c-0.003,1.937-1.537,3.467-3.478,3.469c-3.525,0.002-7.044,0.002-10.57,0c-1.945-0.002-3.475-1.53-3.479-3.472
			c-0.002-1.807-0.011-3.615,0.007-5.421c0.003-0.362-0.088-0.578-0.417-0.789c-4.938-3.164-7.769-7.648-8.317-13.504
			c-0.813-8.667,5.475-16.958,14.034-18.556c0.602-0.112,1.212-0.217,1.817-0.326C263.994,173.792,265.09,173.792,266.186,173.792z
			 M269.801,212.329c0-0.249,0-0.447,0-0.646c0-2.283,0.008-4.565-0.008-6.849c-0.002-0.332,0.083-0.532,0.386-0.691
			c0.517-0.271,1.016-0.577,1.52-0.874c4.862-2.896,7.527-8.373,6.734-13.833c-1.178-8.115-8.739-13.499-16.779-11.793
			c-5.172,1.097-8.713,4.288-10.376,9.288c-1.66,4.97-0.651,9.538,2.741,13.55c1.331,1.576,3.041,2.657,4.826,3.631
			c0.325,0.179,0.455,0.38,0.451,0.763c-0.019,2.282-0.012,4.563-0.012,6.846c0,0.196,0,0.39,0,0.606
			C262.807,212.329,266.267,212.329,269.801,212.329z"/>
		<path fill="#212E64" d="M262.023,229.88c-0.295-0.13-0.598-0.241-0.883-0.39c-1.118-0.584-1.723-1.569-1.894-3.055
			c-1.182-0.262-1.747-0.884-1.717-1.892c0.026-0.926,0.75-1.666,1.68-1.668c3.556-0.011,7.11-0.01,10.666-0.001
			c0.836,0.002,1.554,0.648,1.67,1.45c0.129,0.87-0.34,1.675-1.143,1.954c-0.184,0.062-0.378,0.099-0.581,0.152
			c-0.09,1.81-1.131,2.865-2.761,3.452C265.382,229.88,263.703,229.88,262.023,229.88z"/>
		<path fill="#212E64" d="M264.543,221.117c-1.715,0-3.432,0.001-5.149,0c-1.121-0.001-1.866-0.71-1.863-1.767
			c0.005-1.026,0.75-1.737,1.834-1.739c3.451,0,6.899,0,10.352,0c1.086,0.002,1.829,0.713,1.835,1.739
			c0.005,1.054-0.742,1.766-1.861,1.767C267.976,221.117,266.258,221.117,264.543,221.117z"/>
		
			<line fill="none" stroke="#212E64" stroke-width="4" stroke-miterlimit="10" x1="287.626" y1="176.93" x2="298.192" y2="169.336"/>
		
			<line fill="none" stroke="#212E64" stroke-width="4" stroke-miterlimit="10" x1="288.583" y1="209.734" x2="300.632" y2="214.646"/>
		
			<line fill="none" stroke="#212E64" stroke-width="4" stroke-miterlimit="10" x1="241.763" y1="212.564" x2="229.715" y2="217.477"/>
		
			<line fill="none" stroke="#212E64" stroke-width="4" stroke-miterlimit="10" x1="241.587" y1="178.062" x2="231.021" y2="170.468"/>
	</g>
	<g id="Run-ICON">
		<rect x="89.473" y="344.915" fill="#FCBF22" width="156.571" height="49.17"/>
		<g>
			<path fill="#212E64" d="M135.5,360.229c1.132-0.221,2.569-0.359,3.948-0.359c1.989,0,3.755,0.276,4.97,1.381
				c1.131,1.024,1.458,2.263,1.458,3.864c0,1.989-0.962,3.782-2.868,4.665v0.053c1.271,0.498,1.906,1.686,2.265,3.672
				c0.357,2.069,0.851,4.367,1.186,5.051h-3.786c-0.221-0.521-0.63-2.401-0.91-4.444c-0.333-2.319-0.913-2.979-2.126-2.979h-0.524
				v7.423H135.5V360.229L135.5,360.229z M139.116,368.344h0.635c1.574,0,2.484-1.273,2.484-2.897c0-1.574-0.635-2.704-2.265-2.76
				c-0.304,0-0.663,0.026-0.856,0.11L139.116,368.344L139.116,368.344z"/>
			<path fill="#212E64" d="M151.98,359.953v12.096c0,2.732,0.827,3.56,1.766,3.56c1.053,0,1.795-0.744,1.795-3.56v-12.096h3.616
				v11.456c0,4.775-1.794,7.37-5.382,7.37c-3.892,0-5.41-2.678-5.41-7.344v-11.484L151.98,359.953L151.98,359.953z"/>
			<path fill="#212E64" d="M162.277,378.559v-18.605h3.313l2.87,7.287c0.553,1.436,1.459,3.837,1.987,5.438h0.055
				c-0.114-1.958-0.359-5.189-0.359-8.608v-4.116h3.175v18.605h-3.313l-2.841-7.067c-0.607-1.571-1.461-3.917-1.88-5.604h-0.053
				c0.083,1.882,0.221,4.748,0.221,8.475v4.196H162.277L162.277,378.559z"/>
		</g>
		<polygon fill="#212E64" points="200.76,379.521 200.76,359.503 213.619,369.024 		"/>
	</g>
	<g id="Calque_2_1_">
		<path fill="#212E64" d="M185.438,195.155c0.421-2.315,1.412-4.351,3.019-6.085c2.29-2.472,5.123-3.768,8.479-3.946
			c0.559-0.03,0.561-0.016,0.562,0.553c0,1.406,0.009,2.812-0.005,4.216c-0.004,0.323,0.092,0.437,0.422,0.432
			c1.248-0.016,2.495-0.008,3.742-0.005c1.121,0.001,1.995,0.458,2.495,1.476c0.5,1.016,0.364,2.001-0.342,2.878
			c-0.524,0.652-1.245,0.945-2.077,0.948c-1.261,0.004-2.521,0.014-3.781-0.008c-0.376-0.007-0.471,0.122-0.462,0.475
			c0.021,0.839,0.019,1.681,0.002,2.521c-0.007,0.315,0.108,0.408,0.411,0.402c1.248-0.012,2.494-0.005,3.742-0.006
			c1.122,0,1.998,0.451,2.501,1.467c0.509,1.029,0.372,2.021-0.357,2.907c-0.545,0.661-1.28,0.932-2.124,0.931
			c-1.26-0.001-2.521,0.012-3.782-0.007c-0.334-0.004-0.416,0.095-0.412,0.421c0.019,1.456-0.002,2.913,0.015,4.371
			c0.004,0.328-0.102,0.43-0.428,0.419c-2.587-0.088-4.923-0.902-6.974-2.472c-2.542-1.938-4.092-4.498-4.656-7.644
			C185.372,199.106,185.379,195.476,185.438,195.155z"/>
		<path fill="#212E64" d="M211.652,199.522c-0.42,2.29-1.411,4.299-2.993,6.014c-2.306,2.497-5.157,3.811-8.545,3.969
			c-0.49,0.022-0.492,0.011-0.492-0.494c-0.001-7.787-0.001-15.574-0.004-23.36c0-0.543,0.004-0.552,0.542-0.53
			c2.568,0.113,4.884,0.938,6.918,2.512c2.507,1.938,4.036,4.478,4.596,7.594C211.727,195.518,211.715,199.182,211.652,199.522z"/>
		<rect x="124.667" y="195.12" fill="#212E64" width="66" height="3.904"/>
		<circle fill="#212E64" cx="115.062" cy="196.276" r="11.72"/>
	</g>
	
		<circle id="Button_1_" fill="#212E64" stroke="#212E64" stroke-width="2" stroke-linejoin="round" stroke-miterlimit="10" cx="61.763" cy="194.856" r="26.001"/>
</g>
</svg>
