<?xml version="1.0" encoding="utf-8"?>
<!-- Generator: Adobe Illustrator 16.0.0, SVG Export Plug-In . SVG Version: 6.00 Build 0)  -->
<!DOCTYPE svg PUBLIC "-//W3C//DTD SVG 1.1//EN" "http://www.w3.org/Graphics/SVG/1.1/DTD/svg11.dtd">
<svg version="1.1" id="Calque_1" xmlns="http://www.w3.org/2000/svg" xmlns:xlink="http://www.w3.org/1999/xlink" x="0px" y="0px"
	 width="64px" height="64px" viewBox="0 0 64 64" enable-background="new 0 0 64 64" xml:space="preserve">
<path fill-rule="evenodd" clip-rule="evenodd" d="M49.177,27.349c-0.017,3.412-1.649,8.135-4.917,12.274
	c-0.464,0.59-0.385,0.883,0.111,1.377c5.427,5.39,10.829,10.806,16.237,16.215c0.6,0.6,0.6,0.602-0.008,1.21
	c-0.927,0.927-1.876,1.835-2.772,2.791c-0.399,0.426-0.637,0.403-1.043-0.003c-5.489-5.515-11.001-11.006-16.484-16.525
	c-0.475-0.478-0.774-0.528-1.354-0.148c-4.161,2.73-8.742,4.04-13.72,3.789c-5.331-0.27-10.032-2.163-14.048-5.704
	c-3.761-3.316-6.196-7.429-7.235-12.328C2.741,24.62,3.54,19.208,6.421,14.159c2.931-5.133,7.257-8.611,12.861-10.472
	c1.911-0.634,3.883-0.973,5.909-1.067c3.212-0.148,6.311,0.327,9.303,1.481c4.52,1.743,8.144,4.637,10.836,8.655
	C47.904,16.595,49.189,20.849,49.177,27.349z M26.274,5.439C15.262,5.377,6.213,14.433,6.258,25.516
	c0.045,11.09,9.022,20.039,20.108,20.009c11.057-0.031,19.989-9.005,19.975-20.069C46.329,14.334,37.379,5.407,26.274,5.439z"/>
</svg>
