<?xml version="1.0" encoding="utf-8"?>
<!-- Generator: Adobe Illustrator 16.0.0, SVG Export Plug-In . SVG Version: 6.00 Build 0)  -->
<!DOCTYPE svg PUBLIC "-//W3C//DTD SVG 1.1//EN" "http://www.w3.org/Graphics/SVG/1.1/DTD/svg11.dtd">
<svg version="1.1" id="Calque_1" xmlns="http://www.w3.org/2000/svg" xmlns:xlink="http://www.w3.org/1999/xlink" x="0px" y="0px"
	 width="50px" height="50px" viewBox="0 0 50 50" enable-background="new 0 0 50 50" xml:space="preserve">
<path id="Twitter_1_" fill="#525252" d="M9.105,29.843c4.061,6.764,23.535,9.841,27.844-4.591c2.765,0.282,3.744-1.327,3.744-1.327
	s-3.388,0-3.479-0.703c2.287,0.21,3.479-1.749,3.479-1.749l-3.744,0.346c0,0-0.455-4.971-6.482-6.338
	c0.419-0.594,2.244-1.032,2.244-1.032h-2.104l0.491-0.847l-1.894,0.847l-0.065-0.924c0,0-4.487,5.214-4.907,7.946
	c-3.781-3.293-10.507-5.464-10.507-5.464s-0.139,2.45,2.453,3.993c-0.969,0.431-1.751,0.21-1.751,0.21s-0.21,1.961,3.153,3.083
	c-1.824,0.419-1.895,1.224-1.895,1.224s0.632,1.787,3.575,1.787c-1.751,2.451,1.047,2.451,1.047,2.451S18.001,33.945,9.105,29.843z"
	/>
</svg>
