<?xml version="1.0" encoding="utf-8"?>
<!-- Generator: Adobe Illustrator 16.0.0, SVG Export Plug-In . SVG Version: 6.00 Build 0)  -->
<!DOCTYPE svg PUBLIC "-//W3C//DTD SVG 1.1//EN" "http://www.w3.org/Graphics/SVG/1.1/DTD/svg11.dtd">
<svg version="1.1" id="Calque_1" xmlns="http://www.w3.org/2000/svg" xmlns:xlink="http://www.w3.org/1999/xlink" x="0px" y="0px"
	 width="15px" height="15px" viewBox="0 0 15 15" enable-background="new 0 0 15 15" xml:space="preserve">
<path fill="#525252" d="M7.882,5.621c0,0.355,0.001,0.71-0.001,1.066c0,0.063,0.017,0.104,0.068,0.146
	C8.182,7.019,8.271,7.268,8.21,7.557C8.146,7.85,7.958,8.032,7.669,8.115C7.607,8.133,7.543,8.167,7.499,8.21
	C7.004,8.698,6.514,9.189,6.023,9.682C5.912,9.791,5.78,9.829,5.633,9.789C5.492,9.749,5.4,9.65,5.366,9.509
	C5.33,9.355,5.385,9.23,5.493,9.123c0.431-0.428,0.859-0.857,1.292-1.286C6.84,7.782,6.851,7.741,6.818,7.665
	C6.696,7.369,6.791,7.034,7.049,6.833C7.101,6.791,7.117,6.75,7.117,6.687c-0.001-0.714-0.001-1.427,0-2.141
	c0-0.183,0.102-0.321,0.267-0.373c0.157-0.049,0.335,0,0.419,0.139c0.045,0.075,0.073,0.175,0.075,0.264
	C7.886,4.924,7.881,5.272,7.882,5.621z"/>
<path fill-rule="evenodd" clip-rule="evenodd" fill="#525252" d="M0.476,4.015c0-0.563,0.018-1.128-0.006-1.69
	c-0.016-0.374,0.491-0.85,0.86-0.848C2.491,1.483,3.653,1.47,4.813,1.516c0.468,0.018,0.889,0.252,1.236,0.587
	c0.27,0.26,0.544,0.514,0.809,0.778c1.447,1.446,2.891,2.895,4.336,4.344c0.103,0.104,0.196,0.216,0.301,0.316
	c0.253,0.244,0.27,0.549,0.21,0.86c-0.022,0.116-0.1,0.232-0.18,0.324c-0.221,0.253-0.449,0.498-0.687,0.734
	c-0.924,0.925-1.852,1.846-2.779,2.767c-0.114,0.113-0.239,0.215-0.354,0.326C7.454,12.8,7.15,12.808,6.839,12.729
	c-0.106-0.026-0.209-0.104-0.289-0.182c-1.081-1.063-2.161-2.128-3.233-3.198C2.58,8.614,1.853,7.871,1.126,7.127
	c-0.419-0.43-0.649-0.946-0.653-1.553c-0.003-0.52,0-1.04,0-1.56C0.474,4.015,0.475,4.015,0.476,4.015z M2.879,4.812
	C3.31,4.844,3.743,4.413,3.777,3.917C3.814,3.4,3.439,2.96,2.931,2.92c-0.528-0.042-1.01,0.34-1.05,0.832
	C1.833,4.343,2.228,4.763,2.879,4.812z"/>
<path fill-rule="evenodd" clip-rule="evenodd" fill="#525252" d="M6.123,1.487c0.057,0,0.113,0,0.17,0
	C6.647,1.49,7.002,1.502,7.356,1.496c0.61-0.01,1.124,0.212,1.563,0.621c0.281,0.261,0.56,0.527,0.831,0.798
	c1.443,1.443,2.884,2.888,4.325,4.333c0.093,0.094,0.181,0.191,0.27,0.287c0.357,0.387,0.368,0.824,0.016,1.219
	c-0.243,0.272-0.496,0.535-0.753,0.793c-0.924,0.926-1.851,1.846-2.777,2.768c-0.076,0.075-0.163,0.14-0.238,0.216
	c-0.395,0.405-1.076,0.286-1.411-0.191c0.062-0.067,0.127-0.138,0.194-0.205c1.075-1.083,2.142-2.175,3.232-3.241
	c0.416-0.406,0.425-1.043,0.007-1.455c-1.772-1.752-3.528-3.522-5.292-5.284C6.988,1.819,6.562,1.648,6.123,1.487z"/>
</svg>
