<?xml version="1.0" encoding="utf-8"?>
<!-- Generator: Adobe Illustrator 16.0.0, SVG Export Plug-In . SVG Version: 6.00 Build 0)  -->
<!DOCTYPE svg PUBLIC "-//W3C//DTD SVG 1.1//EN" "http://www.w3.org/Graphics/SVG/1.1/DTD/svg11.dtd">
<svg version="1.1" id="Calque_1" xmlns="http://www.w3.org/2000/svg" xmlns:xlink="http://www.w3.org/1999/xlink" x="0px" y="0px"
	 width="15px" height="15px" viewBox="0 0 15 15" enable-background="new 0 0 15 15" xml:space="preserve">
<path fill-rule="evenodd" clip-rule="evenodd" fill="#525252" d="M7.503,1c3.542,0.004,6.415,2.878,6.412,6.407
	c-0.005,3.552-2.884,6.408-6.456,6.4c-3.517-0.008-6.378-2.884-6.374-6.41C1.089,3.861,3.964,0.996,7.503,1z M12.868,7.408
	c0.01-2.947-2.396-5.354-5.359-5.364C4.55,2.036,2.139,4.431,2.13,7.386c-0.007,2.97,2.386,5.369,5.362,5.376
	C10.455,12.77,12.859,10.375,12.868,7.408z"/>
<path fill-rule="evenodd" clip-rule="evenodd" fill="#525252" d="M7.882,5.621c0,0.355,0.001,0.71-0.001,1.066
	c0,0.063,0.017,0.104,0.068,0.146C8.182,7.019,8.271,7.268,8.21,7.557C8.147,7.85,7.958,8.032,7.669,8.115
	C7.607,8.133,7.543,8.167,7.499,8.21C7.004,8.698,6.514,9.189,6.023,9.681c-0.111,0.11-0.243,0.148-0.39,0.108
	C5.492,9.749,5.4,9.651,5.366,9.509C5.33,9.355,5.385,9.231,5.493,9.123c0.431-0.427,0.859-0.858,1.292-1.286
	c0.055-0.055,0.066-0.096,0.033-0.172C6.696,7.369,6.791,7.034,7.049,6.833C7.101,6.791,7.117,6.75,7.117,6.687
	c-0.001-0.714-0.001-1.427,0-2.141c0-0.183,0.102-0.321,0.267-0.373c0.157-0.049,0.335,0,0.419,0.139
	c0.045,0.075,0.073,0.175,0.075,0.264C7.886,4.924,7.881,5.272,7.882,5.621z"/>
</svg>
