<?xml version="1.0" encoding="utf-8"?>
<!-- Generator: Adobe Illustrator 16.0.0, SVG Export Plug-In . SVG Version: 6.00 Build 0)  -->
<!DOCTYPE svg PUBLIC "-//W3C//DTD SVG 1.1//EN" "http://www.w3.org/Graphics/SVG/1.1/DTD/svg11.dtd">
<svg version="1.1" xmlns="http://www.w3.org/2000/svg" xmlns:xlink="http://www.w3.org/1999/xlink" x="0px" y="0px" width="843px"
	 height="567px" viewBox="0 0 843 567" enable-background="new 0 0 843 567" xml:space="preserve">
<g id="Calque_1">
	
		<image overflow="visible" width="843" height="528" id="Base_Background__x2B__Screenshot_xA0_Image_1_" xlink:href="25EF236640C80EC0.png"  transform="matrix(1 0 0 1 0 39)">
	</image>
	<g id="Base_Background__x2B__Screenshot_xA0_Masque">
		<path fill="none" d="M1,40v521c0,2.209,1.791,4,4,4h832c2.209,0,4-1.791,4-4V40H1z"/>
	</g>
	
		<rect x="2" y="34" fill="#FFFFFF" stroke="#1B1E3B" stroke-width="2" stroke-linejoin="round" stroke-miterlimit="10" width="838.01" height="525.076"/>
	<g id="Top_Background">
		<g>
			<path fill="#FCC020" d="M837,0H5C2.791,0,1,3.241,1,7.238v65.144h840V7.238C841,3.241,839.209,0,837,0z"/>
		</g>
	</g>
	<g id="URL_Background">
		<g>
			<path fill="#FFFFFF" d="M829,18.095H98c-1.104,0-2,1.621-2,3.619v28.953c0,1.999,0.896,3.619,2,3.619h731
				c1.104,0,2-1.621,2-3.619V21.714C831,19.716,830.104,18.095,829,18.095z"/>
		</g>
	</g>
	<g id="Favicon_Background__x2B__Favicon_xA0_Masque">
		<path fill="none" d="M89,18.095H73c-1.104,0-2,1.621-2,3.619v28.953c0,1.999,0.896,3.619,2,3.619h16c1.104,0,2-1.621,2-3.619
			V21.714C91,19.716,90.104,18.095,89,18.095z"/>
	</g>
	<g id="Circle">
		<g>
			<ellipse fill="#1B1E3B" cx="51" cy="36.191" rx="5" ry="9.048"/>
		</g>
	</g>
	<g id="Circle_1_">
		<g>
			<ellipse fill="#1B1E3B" cx="36" cy="36.191" rx="5" ry="9.048"/>
		</g>
	</g>
	<g id="Circle_2_">
		<g>
			<ellipse fill="#1B1E3B" cx="21" cy="36.191" rx="5" ry="9.048"/>
		</g>
	</g>
	<text transform="matrix(0.5526 0 0 1 108.606 43.604)" fill="#1B1E3B" font-family="'OpenSans-Bold'" font-size="22">http://bec3.com/</text>
	<text transform="matrix(1 0 0 1 567.499 415)" fill="#1A1E3A" font-family="'MyriadPro-BoldCond'" font-size="32">LIGHT</text>
	<text transform="matrix(1 0 0 1 158.5015 414.5)" fill="#1A1E3A" font-family="'MyriadPro-BoldCond'" font-size="32">BUTTON</text>
</g>
<g id="Calque_2">
	<path fill-rule="evenodd" clip-rule="evenodd" fill="#1B1F3B" d="M601.455,239.163c1.821,0.374,3.668,0.651,5.459,1.137
		c12.151,3.298,21.289,13.987,22.411,26.53c1.132,12.648-3.891,22.434-14.406,29.442c-0.681,0.454-0.918,0.893-0.904,1.694
		c0.05,3.127,0.024,6.255,0.02,9.384c-0.007,3.422-2.716,6.125-6.147,6.128c-6.226,0.004-12.449,0.005-18.674,0
		c-3.434-0.003-6.137-2.703-6.143-6.132c-0.005-3.192-0.015-6.385,0.012-9.578c0.005-0.638-0.157-1.021-0.737-1.392
		c-8.722-5.59-13.725-13.511-14.698-23.857c-1.438-15.312,9.671-29.96,24.792-32.781c1.069-0.199,2.141-0.384,3.211-0.576
		C597.584,239.163,599.52,239.163,601.455,239.163z M607.842,307.246c0-0.44,0-0.792,0-1.142c0-4.032,0.013-8.063-0.014-12.096
		c-0.004-0.587,0.149-0.943,0.683-1.221c0.914-0.475,1.794-1.016,2.68-1.543c8.588-5.117,13.296-14.792,11.896-24.439
		c-2.081-14.337-15.438-23.847-29.642-20.834c-9.132,1.938-15.387,7.575-18.332,16.41c-2.927,8.779-1.151,16.848,4.843,23.937
		c2.352,2.782,5.373,4.695,8.526,6.416c0.58,0.317,0.804,0.67,0.798,1.346c-0.034,4.032-0.017,8.062-0.017,12.095
		c0,0.345,0,0.688,0,1.071C595.485,307.246,601.6,307.246,607.842,307.246z"/>
	<path fill-rule="evenodd" clip-rule="evenodd" fill="#1B1F3B" d="M594.101,338.252c-0.521-0.229-1.055-0.427-1.558-0.689
		c-1.975-1.034-3.044-2.777-3.347-5.401c-2.087-0.461-3.086-1.562-3.034-3.34c0.047-1.635,1.326-2.944,2.968-2.948
		c6.281-0.017,12.562-0.015,18.843-0.001c1.472,0.003,2.746,1.146,2.951,2.563c0.224,1.537-0.6,2.958-2.018,3.45
		c-0.325,0.113-0.667,0.176-1.027,0.269c-0.159,3.202-1.998,5.068-4.876,6.098C600.035,338.252,597.068,338.252,594.101,338.252z"/>
	<path fill-rule="evenodd" clip-rule="evenodd" fill="#1B1F3B" d="M598.553,322.77c-3.032,0-6.064,0.002-9.097-0.001
		c-1.979-0.002-3.297-1.256-3.29-3.12c0.008-1.813,1.326-3.07,3.241-3.071c6.097-0.003,12.192-0.003,18.288,0
		c1.918,0.001,3.235,1.257,3.243,3.071c0.007,1.864-1.311,3.118-3.29,3.12C604.616,322.771,601.584,322.77,598.553,322.77z"/>
	
		<circle fill="#1B1E3B" stroke="#1B1E3B" stroke-width="2" stroke-linejoin="round" stroke-miterlimit="10" cx="207" cy="277" r="47"/>
	<g>
		<g>
			<line fill="none" stroke="#1B1E3B" stroke-width="4" stroke-linejoin="round" x1="287" y1="278" x2="509.382" y2="278"/>
			<g>
				<polygon fill="#1B1E3B" points="503.546,297.945 538.085,278.002 503.546,258.057 				"/>
			</g>
		</g>
	</g>
</g>
</svg>
