<?xml version="1.0" encoding="utf-8"?>
<!-- Generator: Adobe Illustrator 16.0.0, SVG Export Plug-In . SVG Version: 6.00 Build 0)  -->
<!DOCTYPE svg PUBLIC "-//W3C//DTD SVG 1.1//EN" "http://www.w3.org/Graphics/SVG/1.1/DTD/svg11.dtd">
<svg version="1.1" id="Calque_1" xmlns="http://www.w3.org/2000/svg" xmlns:xlink="http://www.w3.org/1999/xlink" x="0px" y="0px"
	 width="15px" height="15px" viewBox="0 0 15 15" enable-background="new 0 0 15 15" xml:space="preserve">
<path fill-rule="evenodd" clip-rule="evenodd" fill="#525252" d="M1.569,12.662c0.039-0.176,0.077-0.355,0.117-0.529
	c0.277-1.211,0.87-2.244,1.767-3.104c0.384-0.367,0.809-0.68,1.271-0.94c0.085-0.048,0.135-0.05,0.209,0.021
	C5.354,8.51,5.844,8.803,6.394,8.992c0.353,0.121,0.716,0.189,1.09,0.209c0.595,0.033,1.167-0.061,1.72-0.279
	c0.473-0.191,0.898-0.459,1.27-0.812c0.07-0.071,0.125-0.069,0.207-0.021c1.16,0.663,2.037,1.589,2.613,2.802
	c0.244,0.518,0.408,1.059,0.5,1.623c0.008,0.051,0.027,0.1,0.041,0.148c0,0.066,0,0.133,0,0.197c-0.107,0.25-0.295,0.354-0.57,0.354
	c-3.705-0.004-7.41-0.004-11.115,0c-0.277,0-0.47-0.098-0.579-0.354C1.569,12.795,1.569,12.729,1.569,12.662z"/>
<path fill-rule="evenodd" clip-rule="evenodd" fill="#525252" d="M11.197,5.173c0.012,1.839-1.441,3.323-3.178,3.471
	C5.886,8.826,4.336,7.161,4.212,5.467c-0.16-2.186,1.514-3.657,3.182-3.798C9.484,1.492,11.238,3.18,11.197,5.173z"/>
</svg>
