<?xml version="1.0" encoding="utf-8"?>
<!-- Generator: Adobe Illustrator 16.0.0, SVG Export Plug-In . SVG Version: 6.00 Build 0)  -->
<!DOCTYPE svg PUBLIC "-//W3C//DTD SVG 1.1//EN" "http://www.w3.org/Graphics/SVG/1.1/DTD/svg11.dtd">
<svg version="1.1" id="Calque_1" xmlns="http://www.w3.org/2000/svg" xmlns:xlink="http://www.w3.org/1999/xlink" x="0px" y="0px"
	 width="104.668px" height="193.678px" viewBox="0 0 104.668 193.678" enable-background="new 0 0 104.668 193.678"
	 xml:space="preserve">
<g>
	<path fill="#FFFFFF" d="M0.001,96.831c0,26.94-0.002,53.882,0.001,80.823c0.001,9.363,6.599,16.015,15.906,16.018
		c24.279,0.008,48.557,0.008,72.836,0c9.312-0.003,15.921-6.652,15.922-16.001c0.002-53.883,0.002-107.766,0-161.648
		c-0.001-9.362-6.6-16.014-15.907-16.017c-24.278-0.007-48.557-0.007-72.835,0c-9.313,0.002-15.92,6.649-15.921,16
		C-0.001,42.947,0.001,69.889,0.001,96.831z"/>
	<path fill-rule="evenodd" clip-rule="evenodd" fill="#212E64" d="M0.001,96.831c0-26.942-0.002-53.884,0.001-80.825
		c0.001-9.352,6.608-15.998,15.921-16c24.279-0.007,48.557-0.007,72.835,0c9.308,0.003,15.906,6.655,15.907,16.017
		c0.002,53.882,0.002,107.765,0,161.648c-0.001,9.349-6.61,15.998-15.922,16.001c-24.279,0.008-48.558,0.008-72.836,0
		c-9.307-0.003-15.905-6.654-15.906-16.018C-0.001,150.713,0.001,123.771,0.001,96.831z M94.764,33.244c-28.394,0-56.612,0-84.785,0
		c0,43.203,0,86.229,0,129.253c28.349,0,56.511,0,84.785,0C94.764,119.377,94.764,76.404,94.764,33.244z M44.108,176.749
		c0,4.304,3.455,7.729,7.745,7.677c4.187-0.051,7.519-3.446,7.524-7.665c0.007-4.201-3.339-7.625-7.512-7.687
		C47.588,169.011,44.109,172.453,44.108,176.749z"/>
	<path fill-rule="evenodd" clip-rule="evenodd" fill="#FFFFFF" d="M94.764,33.244c0,43.161,0,86.133,0,129.253
		c-28.273,0-56.436,0-84.785,0c0-43.024,0-86.05,0-129.253C38.151,33.244,66.37,33.244,94.764,33.244z"/>
	<path fill-rule="evenodd" clip-rule="evenodd" fill="#FFFFFF" d="M44.108,176.749c0-4.296,3.479-7.738,7.758-7.675
		c4.173,0.062,7.519,3.485,7.512,7.687c-0.006,4.219-3.338,7.614-7.524,7.665C47.563,184.478,44.108,181.053,44.108,176.749z"/>
</g>
</svg>
