<?xml version="1.0" encoding="utf-8"?>
<!-- Generator: Adobe Illustrator 16.0.0, SVG Export Plug-In . SVG Version: 6.00 Build 0)  -->
<!DOCTYPE svg PUBLIC "-//W3C//DTD SVG 1.1//EN" "http://www.w3.org/Graphics/SVG/1.1/DTD/svg11.dtd">
<svg version="1.1" id="Calque_1" xmlns="http://www.w3.org/2000/svg" xmlns:xlink="http://www.w3.org/1999/xlink" x="0px" y="0px"
	 width="104.668px" height="193.678px" viewBox="0 0 104.668 193.678" enable-background="new 0 0 104.668 193.678"
	 xml:space="preserve">
<g>
	<path fill="#FFFFFF" d="M0.001,96.831c0,26.939-0.002,53.882,0.001,80.822c0.001,9.363,6.599,16.016,15.906,16.019
		c24.279,0.009,48.557,0.009,72.836,0c9.312-0.003,15.921-6.651,15.922-16.001c0.002-53.883,0.002-107.766,0-161.648
		c-0.001-9.362-6.6-16.014-15.907-16.017c-24.278-0.007-48.557-0.007-72.835,0c-9.313,0.002-15.92,6.649-15.921,16
		C-0.001,42.947,0.001,69.889,0.001,96.831z"/>
	<path fill="#212E64" d="M0.001,96.831c0-26.942-0.002-53.884,0.001-80.825c0.001-9.352,6.608-15.998,15.921-16
		c24.279-0.007,48.558-0.007,72.835,0c9.309,0.003,15.906,6.655,15.907,16.017c0.002,53.882,0.002,107.765,0,161.648
		c-0.001,9.35-6.61,15.998-15.922,16.001c-24.279,0.009-48.558,0.009-72.836,0c-9.307-0.003-15.905-6.653-15.906-16.019
		C-0.001,150.713,0.001,123.771,0.001,96.831z M94.764,33.244c-28.394,0-56.612,0-84.785,0c0,43.203,0,86.229,0,129.253
		c28.349,0,56.511,0,84.785,0C94.764,119.377,94.764,76.404,94.764,33.244z M44.108,176.749c0,4.304,3.455,7.729,7.745,7.677
		c4.187-0.051,7.519-3.446,7.524-7.665c0.007-4.201-3.339-7.625-7.512-7.687C47.588,169.011,44.109,172.453,44.108,176.749z"/>
	<path fill="#FCC020" d="M94.764,33.244c0,43.161,0,86.133,0,129.253c-28.272,0-56.436,0-84.785,0c0-43.023,0-86.05,0-129.253
		C38.151,33.244,66.37,33.244,94.764,33.244z"/>
	<path fill="#FFFFFF" d="M44.108,176.749c0-4.296,3.479-7.738,7.758-7.675c4.173,0.062,7.519,3.485,7.512,7.687
		c-0.006,4.219-3.338,7.614-7.524,7.665C47.563,184.478,44.108,181.053,44.108,176.749z"/>
</g>
<path fill-rule="evenodd" clip-rule="evenodd" fill="#212E64" d="M29.94,69.247c1.096-0.941,2.297-1.697,3.723-2.03
	c1.261-0.294,2.547-0.209,3.824-0.211c10.405-0.02,20.811-0.035,31.216-0.04c3.847-0.002,6.978,2.416,7.847,6.021
	c0.272,1.134,0.215,2.289,0.218,3.438c0.014,4.479-0.016,8.956,0.034,13.434c0.036,3.326-1.281,5.854-4.154,7.555
	c-1.306,0.642-2.684,0.933-4.142,0.927c-2.96-0.016-5.922,0.054-8.878-0.027c-0.979-0.027-1.505,0.329-1.861,1.141
	c-1.507,2.066-3.012,4.134-4.518,6.203c-0.213,0.292-0.441,0.578-0.626,0.889c-0.231,0.395-0.442,0.373-0.68,0.023
	c-1.954-2.662-3.911-5.32-5.852-7.992c-0.2-0.272-0.44-0.215-0.682-0.214c-3.22-0.003-6.438,0.015-9.657,0.002
	c-4.763-0.021-8.111-3.426-8.104-8.193c0.006-4.839,0.042-9.678-0.028-14.515c-0.036-2.381,0.584-4.458,2.171-6.238l0,0
	C29.841,69.362,29.891,69.304,29.94,69.247z"/>
<g>
	<path fill="#212E64" d="M51.817,117.062h-0.062l-3.504,1.892l-0.526-2.077l4.402-2.357h2.325v20.154h-2.636V117.062z"/>
</g>
</svg>
