<?xml version="1.0" encoding="utf-8"?>
<!-- Generator: Adobe Illustrator 16.0.0, SVG Export Plug-In . SVG Version: 6.00 Build 0)  -->
<!DOCTYPE svg PUBLIC "-//W3C//DTD SVG 1.1//EN" "http://www.w3.org/Graphics/SVG/1.1/DTD/svg11.dtd">
<svg version="1.1" id="Calque_1" xmlns="http://www.w3.org/2000/svg" xmlns:xlink="http://www.w3.org/1999/xlink" x="0px" y="0px"
	 width="843px" height="567px" viewBox="0 0 843 567" enable-background="new 0 0 843 567" xml:space="preserve">
<g id="Browser">
	<rect x="2.991" y="1" fill="#FFFFFF" width="836.009" height="560"/>
	<rect x="-0.085" fill="#212E64" width="3.292" height="567"/>
	<rect fill="#212E64" width="842" height="12.637"/>
	<rect x="838.667" y="-0.826" fill="#212E64" width="4.333" height="567.826"/>
	<rect x="2.833" y="563.157" fill="#212E64" width="837.493" height="3.843"/>
	<g id="Top_Background">
		<g>
			<path fill="#FCC020" d="M834.699,0H7.215C5.018,0,3.237,3.241,3.237,7.238v65.144h835.441V7.238
				C838.678,3.241,836.896,0,834.699,0z"/>
		</g>
	</g>
	<g id="URL_Background">
		<g>
			<path fill="#FFFFFF" d="M821.193,18.095H97.17c-1.094,0-1.981,1.621-1.981,3.619v28.953c0,1.999,0.887,3.619,1.981,3.619h724.023
				c1.094,0,1.979-1.621,1.979-3.619V21.714C823.174,19.716,822.287,18.095,821.193,18.095z"/>
		</g>
	</g>
	<g>
		<path fill="#212E64" d="M115.682,43.604h-1.811v-7.015c0-1.733-0.356-2.6-1.068-2.6c-0.507,0-0.873,0.312-1.099,0.935
			s-0.338,1.633-0.338,3.029v5.65h-1.811V26.889h1.811v3.405c0,0.265-0.014,0.888-0.042,1.869l-0.042,0.967h0.095
			c0.403-1.174,1.044-1.762,1.923-1.762c0.78,0,1.371,0.38,1.775,1.139c0.404,0.759,0.605,1.848,0.605,3.266v7.831H115.682z"/>
		<path fill="#212E64" d="M120.95,41.208c0.316,0,0.696-0.125,1.14-0.376v2.438c-0.451,0.365-1.005,0.548-1.662,0.548
			c-0.725,0-1.252-0.331-1.582-0.994c-0.331-0.662-0.496-1.656-0.496-2.981v-5.79h-0.867v-1.386l0.998-1.096l0.522-2.535h1.158
			v2.557h1.858v2.46h-1.858v5.79c0,0.466,0.072,0.81,0.216,1.031C120.521,41.098,120.712,41.208,120.95,41.208z"/>
		<path fill="#212E64" d="M126.836,41.208c0.316,0,0.696-0.125,1.14-0.376v2.438c-0.451,0.365-1.005,0.548-1.662,0.548
			c-0.725,0-1.252-0.331-1.582-0.994c-0.331-0.662-0.496-1.656-0.496-2.981v-5.79h-0.867v-1.386l0.998-1.096l0.522-2.535h1.158
			v2.557h1.858v2.46h-1.858v5.79c0,0.466,0.072,0.81,0.216,1.031C126.407,41.098,126.598,41.208,126.836,41.208z"/>
		<path fill="#212E64" d="M133.57,43.819c-0.78,0-1.391-0.512-1.834-1.536h-0.095c0.063,1.003,0.095,1.583,0.095,1.74v4.866h-1.811
			V31.594h1.472l0.255,1.558h0.083c0.424-1.188,1.051-1.783,1.882-1.783c0.784,0,1.397,0.548,1.84,1.644
			c0.443,1.096,0.665,2.618,0.665,4.565c0,1.282-0.104,2.396-0.312,3.341c-0.208,0.945-0.504,1.665-0.888,2.159
			C134.538,43.572,134.088,43.819,133.57,43.819z M133.036,33.99c-0.447,0-0.774,0.249-0.979,0.747
			c-0.206,0.498-0.312,1.32-0.321,2.465v0.354c0,1.289,0.106,2.213,0.318,2.771c0.211,0.559,0.547,0.838,1.006,0.838
			c0.811,0,1.217-1.21,1.217-3.631c0-1.182-0.1-2.068-0.3-2.659C133.777,34.284,133.463,33.99,133.036,33.99z"/>
		<path fill="#212E64" d="M137.971,33.195c0-0.602,0.089-1.056,0.268-1.364c0.178-0.308,0.437-0.462,0.777-0.462
			c0.329,0,0.583,0.158,0.763,0.473c0.18,0.315,0.27,0.767,0.27,1.354c0,0.58-0.092,1.03-0.276,1.348
			c-0.184,0.319-0.436,0.478-0.757,0.478c-0.333,0-0.59-0.157-0.771-0.473C138.062,34.233,137.971,33.782,137.971,33.195z
			 M137.971,42.068c0-0.602,0.089-1.056,0.268-1.364c0.178-0.308,0.437-0.462,0.777-0.462c0.329,0,0.583,0.158,0.763,0.473
			c0.18,0.315,0.27,0.767,0.27,1.354c0,0.566-0.091,1.012-0.273,1.337c-0.182,0.326-0.435,0.489-0.76,0.489
			c-0.333,0-0.59-0.16-0.771-0.478C138.062,43.098,137.971,42.648,137.971,42.068z"/>
		<path fill="#212E64" d="M146.314,27.899l-3.235,15.705h-1.645l3.235-15.705H146.314z"/>
		<path fill="#212E64" d="M151.944,27.899l-3.235,15.705h-1.645l3.235-15.705H151.944z"/>
		<path fill="#212E64" d="M157.253,31.369c0.784,0,1.397,0.553,1.84,1.66c0.443,1.106,0.665,2.623,0.665,4.549
			c0,1.984-0.229,3.52-0.686,4.608c-0.457,1.089-1.08,1.633-1.867,1.633c-0.78,0-1.391-0.512-1.834-1.536h-0.125l-0.303,1.321
			h-1.383V26.889h1.811v3.889c0,0.494-0.023,1.286-0.071,2.374h0.071C155.795,31.963,156.422,31.369,157.253,31.369z M156.672,33.99
			c-0.447,0-0.774,0.249-0.979,0.747c-0.206,0.498-0.312,1.32-0.321,2.465v0.354c0,1.289,0.106,2.213,0.318,2.771
			c0.211,0.559,0.547,0.838,1.006,0.838c0.372,0,0.667-0.31,0.887-0.929c0.22-0.619,0.33-1.52,0.33-2.702
			c0-1.182-0.111-2.068-0.333-2.659C157.358,34.284,157.056,33.99,156.672,33.99z"/>
		<path fill="#212E64" d="M164.867,43.819c-1.068,0-1.904-0.533-2.505-1.601c-0.602-1.067-0.902-2.578-0.902-4.533
			c0-2.012,0.278-3.568,0.834-4.667s1.325-1.649,2.306-1.649c0.938,0,1.668,0.483,2.19,1.45c0.522,0.967,0.784,2.303,0.784,4.007
			v1.59h-4.28c0.02,0.931,0.172,1.658,0.457,2.181s0.685,0.784,1.199,0.784c0.4,0,0.778-0.075,1.134-0.226
			c0.356-0.15,0.729-0.39,1.116-0.72v2.535c-0.316,0.287-0.655,0.5-1.015,0.639C165.825,43.749,165.385,43.819,164.867,43.819z
			 M164.611,33.7c-0.384,0-0.685,0.22-0.902,0.661s-0.342,1.065-0.374,1.875h2.541c-0.008-0.809-0.125-1.434-0.35-1.875
			S164.995,33.7,164.611,33.7z"/>
		<path fill="#212E64" d="M172.349,43.819c-2.066,0-3.099-2.052-3.099-6.155c0-2.041,0.281-3.6,0.843-4.678
			c0.562-1.078,1.367-1.617,2.416-1.617c0.768,0,1.457,0.272,2.066,0.816l-0.534,2.535c-0.285-0.208-0.55-0.377-0.795-0.51
			c-0.246-0.132-0.491-0.199-0.736-0.199c-0.942,0-1.413,1.21-1.413,3.631c0,2.349,0.471,3.523,1.413,3.523
			c0.348,0,0.671-0.084,0.968-0.252s0.594-0.431,0.891-0.79v2.804c-0.293,0.337-0.589,0.569-0.888,0.698
			S172.804,43.819,172.349,43.819z"/>
		<path fill="#212E64" d="M181.778,31.412c0,0.981-0.164,1.815-0.493,2.503c-0.329,0.688-0.79,1.16-1.383,1.418v0.064
			c0.701,0.158,1.231,0.542,1.591,1.155c0.36,0.612,0.54,1.438,0.54,2.476c0,1.511-0.303,2.688-0.908,3.529
			c-0.605,0.842-1.47,1.262-2.594,1.262c-0.942,0-1.777-0.283-2.505-0.849v-2.825c0.336,0.308,0.707,0.559,1.11,0.752
			c0.403,0.193,0.803,0.29,1.199,0.29c0.605,0,1.053-0.186,1.341-0.559c0.289-0.372,0.434-0.97,0.434-1.794
			c0-0.737-0.167-1.26-0.499-1.568c-0.333-0.308-0.863-0.462-1.591-0.462h-0.659v-2.546h0.671c0.672,0,1.164-0.159,1.475-0.478
			c0.311-0.318,0.466-0.865,0.466-1.638c0-1.188-0.412-1.783-1.235-1.783c-0.285,0-0.575,0.086-0.87,0.258
			c-0.295,0.172-0.622,0.469-0.982,0.892l-0.849-2.288c0.792-1.031,1.735-1.547,2.832-1.547c0.898,0,1.608,0.33,2.128,0.988
			C181.518,29.321,181.778,30.237,181.778,31.412z"/>
		<path fill="#212E64" d="M183.805,42.068c0-0.602,0.089-1.056,0.268-1.364c0.178-0.308,0.437-0.462,0.777-0.462
			c0.329,0,0.583,0.158,0.763,0.473c0.18,0.315,0.27,0.767,0.27,1.354c0,0.566-0.091,1.012-0.273,1.337
			c-0.182,0.326-0.435,0.489-0.76,0.489c-0.333,0-0.59-0.16-0.771-0.478C183.896,43.098,183.805,42.648,183.805,42.068z"/>
		<path fill="#212E64" d="M190.83,43.819c-2.066,0-3.099-2.052-3.099-6.155c0-2.041,0.281-3.6,0.843-4.678
			c0.562-1.078,1.367-1.617,2.416-1.617c0.768,0,1.457,0.272,2.066,0.816l-0.534,2.535c-0.285-0.208-0.55-0.377-0.795-0.51
			c-0.246-0.132-0.491-0.199-0.736-0.199c-0.942,0-1.413,1.21-1.413,3.631c0,2.349,0.471,3.523,1.413,3.523
			c0.348,0,0.671-0.084,0.968-0.252s0.594-0.431,0.891-0.79v2.804c-0.293,0.337-0.589,0.569-0.888,0.698
			C191.663,43.754,191.285,43.819,190.83,43.819z"/>
		<path fill="#212E64" d="M201.026,37.578c0,1.955-0.285,3.484-0.855,4.587c-0.57,1.103-1.363,1.654-2.38,1.654
			c-0.637,0-1.199-0.252-1.686-0.757s-0.861-1.23-1.122-2.175c-0.261-0.945-0.392-2.048-0.392-3.309
			c0-1.962,0.283-3.487,0.849-4.576c0.566-1.088,1.361-1.633,2.387-1.633c0.637,0,1.199,0.251,1.686,0.752
			c0.487,0.501,0.861,1.221,1.122,2.159C200.895,35.218,201.026,36.317,201.026,37.578z M196.437,37.578
			c0,1.189,0.107,2.088,0.323,2.696c0.216,0.609,0.567,0.913,1.054,0.913c0.483,0,0.83-0.302,1.042-0.908
			c0.211-0.605,0.317-1.505,0.317-2.702c0-1.188-0.106-2.08-0.32-2.675c-0.214-0.594-0.564-0.892-1.051-0.892
			c-0.483,0-0.831,0.295-1.045,0.886C196.543,35.487,196.437,36.382,196.437,37.578z"/>
		<path fill="#212E64" d="M209.072,43.604h-1.811v-7.015c0-0.866-0.08-1.516-0.24-1.95c-0.161-0.433-0.413-0.65-0.757-0.65
			c-0.463,0-0.8,0.308-1.009,0.924c-0.21,0.616-0.315,1.629-0.315,3.04v5.65h-1.811v-12.01h1.383l0.243,1.536h0.101
			c0.178-0.551,0.436-0.983,0.772-1.294s0.722-0.467,1.157-0.467c0.994,0,1.667,0.587,2.019,1.762h0.16
			c0.178-0.559,0.44-0.992,0.787-1.3c0.346-0.308,0.737-0.462,1.172-0.462c0.752,0,1.321,0.349,1.707,1.047
			c0.386,0.698,0.579,1.817,0.579,3.357v7.831h-1.816v-7.015c0-0.866-0.08-1.516-0.24-1.95c-0.161-0.433-0.413-0.65-0.757-0.65
			c-0.443,0-0.774,0.287-0.994,0.859c-0.22,0.573-0.33,1.482-0.33,2.729V43.604L209.072,43.604z"/>
		<path fill="#212E64" d="M219.688,27.899l-3.235,15.705h-1.645l3.235-15.705H219.688z"/>
	</g>
	<circle fill="#212E64" cx="72" cy="36" r="8.5"/>
	<circle fill="#212E64" cx="23" cy="36" r="8.5"/>
	<circle fill="#212E64" cx="47.5" cy="36" r="8.5"/>
</g>
</svg>
