<?xml version="1.0" encoding="utf-8"?>
<!-- Generator: Adobe Illustrator 16.0.0, SVG Export Plug-In . SVG Version: 6.00 Build 0)  -->
<!DOCTYPE svg PUBLIC "-//W3C//DTD SVG 1.1//EN" "http://www.w3.org/Graphics/SVG/1.1/DTD/svg11.dtd">
<svg version="1.1" id="Calque_1" xmlns="http://www.w3.org/2000/svg" xmlns:xlink="http://www.w3.org/1999/xlink" x="0px" y="0px"
	 width="843px" height="567px" viewBox="0 0 843 567" enable-background="new 0 0 843 567" xml:space="preserve">
<g id="Browser">
	<rect x="2.991" y="1" fill="#FFFFFF" width="836.009" height="560"/>
	<rect x="-0.085" fill="#212E64" width="3.292" height="567"/>
	<rect fill="#212E64" width="842" height="12.637"/>
	<rect x="838.667" y="-0.826" fill="#212E64" width="4.333" height="567.826"/>
	<rect x="2.833" y="563.157" fill="#212E64" width="837.493" height="3.843"/>
	<g id="Top_Background">
		<g>
			<path fill="#FCC020" d="M834.699,0H7.215C5.018,0,3.237,3.241,3.237,7.238v65.144h835.441V7.238
				C838.678,3.241,836.896,0,834.699,0z"/>
		</g>
	</g>
	<g id="URL_Background">
		<g>
			<path fill="#FFFFFF" d="M821.193,18.095H97.17c-1.094,0-1.981,1.621-1.981,3.619v28.953c0,1.999,0.887,3.619,1.981,3.619h724.023
				c1.094,0,1.979-1.621,1.979-3.619V21.714C823.174,19.716,822.287,18.095,821.193,18.095z"/>
		</g>
		<g>
			<path fill="#212E64" d="M112.109,29.805h1.758v6.219c0.625-0.562,1.315-0.844,2.07-0.844c0.859,0,1.547,0.279,2.062,0.836
				c0.438,0.484,0.656,1.258,0.656,2.32V43h-1.758v-4.5c0-0.609-0.108-1.051-0.324-1.324c-0.216-0.273-0.564-0.41-1.043-0.41
				c-0.615,0-1.047,0.19-1.297,0.57c-0.245,0.386-0.367,1.047-0.367,1.984V43h-1.758V29.805z"/>
			<path fill="#212E64" d="M122.695,37.031V43h-1.758v-5.969h-0.75v-1.641h0.75v-2.789h1.758v2.789h1.367v1.641H122.695z"/>
			<path fill="#212E64" d="M127.07,37.031V43h-1.758v-5.969h-0.75v-1.641h0.75v-2.789h1.758v2.789h1.367v1.641H127.07z"/>
			<path fill="#212E64" d="M131.391,47.141h-1.758v-11.75h1.758v0.828c0.692-0.692,1.479-1.039,2.359-1.039
				c1.047,0,1.909,0.386,2.586,1.156c0.688,0.766,1.031,1.732,1.031,2.898c0,1.141-0.341,2.091-1.023,2.852
				c-0.677,0.755-1.531,1.133-2.562,1.133c-0.891,0-1.688-0.356-2.391-1.07V47.141z M135.57,39.242c0-0.729-0.198-1.323-0.594-1.781
				c-0.401-0.463-0.906-0.695-1.516-0.695c-0.646,0-1.169,0.224-1.57,0.672c-0.401,0.448-0.602,1.037-0.602,1.766
				c0,0.714,0.2,1.302,0.602,1.766c0.396,0.453,0.917,0.68,1.562,0.68c0.609,0,1.112-0.229,1.508-0.688
				C135.367,40.503,135.57,39.93,135.57,39.242z"/>
			<path fill="#212E64" d="M139.5,36.25c0-0.286,0.106-0.536,0.32-0.75c0.213-0.213,0.469-0.32,0.766-0.32s0.552,0.107,0.766,0.32
				c0.213,0.214,0.32,0.469,0.32,0.766c0,0.302-0.107,0.56-0.32,0.773c-0.208,0.208-0.464,0.312-0.766,0.312
				c-0.302,0-0.56-0.106-0.773-0.32C139.604,36.823,139.5,36.562,139.5,36.25z M139.5,42.125c0-0.292,0.106-0.544,0.32-0.758
				c0.213-0.213,0.469-0.32,0.766-0.32s0.552,0.107,0.766,0.32c0.213,0.214,0.32,0.469,0.32,0.766c0,0.302-0.107,0.56-0.32,0.773
				c-0.208,0.208-0.464,0.312-0.766,0.312c-0.308,0-0.565-0.104-0.773-0.312C139.604,42.698,139.5,42.438,139.5,42.125z"/>
			<path fill="#212E64" d="M149.836,29.672l1.453,0.641l-6.906,15.984l-1.438-0.648L149.836,29.672z"/>
			<path fill="#212E64" d="M158.125,29.672l1.453,0.641l-6.906,15.984l-1.438-0.648L158.125,29.672z"/>
			<path fill="#212E64" d="M162.5,29.805v6.469c0.703-0.729,1.5-1.094,2.391-1.094c1.026,0,1.88,0.383,2.562,1.148
				c0.682,0.761,1.023,1.708,1.023,2.844c0,1.172-0.344,2.141-1.031,2.906c-0.683,0.761-1.544,1.141-2.586,1.141
				c-0.88,0-1.667-0.338-2.359-1.016V43h-1.758V29.805H162.5z M166.68,39.25c0-0.729-0.198-1.323-0.594-1.781
				c-0.401-0.469-0.904-0.703-1.508-0.703c-0.646,0-1.172,0.227-1.578,0.68c-0.401,0.448-0.602,1.031-0.602,1.75
				c0,0.74,0.198,1.331,0.594,1.773c0.396,0.453,0.917,0.68,1.562,0.68c0.609,0,1.114-0.227,1.516-0.68
				C166.477,40.511,166.68,39.938,166.68,39.25z"/>
			<path fill="#212E64" d="M177.266,39.609h-5.453c0.047,0.625,0.25,1.123,0.609,1.492c0.359,0.365,0.82,0.547,1.383,0.547
				c0.438,0,0.799-0.104,1.086-0.312c0.281-0.208,0.602-0.594,0.961-1.156l1.484,0.828c-0.229,0.391-0.472,0.726-0.727,1.004
				c-0.255,0.279-0.529,0.508-0.82,0.688c-0.292,0.18-0.607,0.311-0.945,0.395c-0.339,0.083-0.706,0.125-1.102,0.125
				c-1.136,0-2.047-0.364-2.734-1.094c-0.688-0.734-1.031-1.708-1.031-2.922c0-1.203,0.333-2.177,1-2.922
				c0.672-0.734,1.562-1.102,2.672-1.102c1.12,0,2.005,0.357,2.656,1.07c0.646,0.708,0.969,1.69,0.969,2.945L177.266,39.609z
				 M175.461,38.172c-0.245-0.938-0.836-1.406-1.773-1.406c-0.214,0-0.414,0.033-0.602,0.098c-0.188,0.065-0.358,0.159-0.512,0.281
				c-0.154,0.123-0.285,0.27-0.395,0.441s-0.193,0.367-0.25,0.586H175.461z"/>
			<path fill="#212E64" d="M185.109,35.719v2.336c-0.401-0.489-0.761-0.825-1.078-1.008c-0.312-0.188-0.68-0.281-1.102-0.281
				c-0.662,0-1.211,0.232-1.648,0.695c-0.438,0.464-0.656,1.044-0.656,1.742c0,0.714,0.211,1.3,0.633,1.758
				c0.427,0.458,0.971,0.688,1.633,0.688c0.422,0,0.794-0.091,1.117-0.273c0.312-0.177,0.68-0.521,1.102-1.031v2.32
				c-0.714,0.37-1.427,0.555-2.141,0.555c-1.177,0-2.162-0.38-2.953-1.141c-0.792-0.766-1.188-1.716-1.188-2.852
				c0-1.135,0.401-2.094,1.203-2.875c0.802-0.781,1.786-1.172,2.953-1.172C183.734,35.18,184.442,35.359,185.109,35.719z"/>
			<path fill="#212E64" d="M189.844,37.398v-1.555c0.771,0,1.289-0.086,1.555-0.258c0.474-0.302,0.711-0.786,0.711-1.453
				c0-0.516-0.172-0.935-0.516-1.258c-0.339-0.328-0.779-0.492-1.32-0.492c-0.505,0-0.896,0.123-1.172,0.367
				c-0.266,0.25-0.464,0.672-0.594,1.266h-1.812c0.188-1.135,0.573-1.967,1.156-2.496c0.583-0.528,1.398-0.793,2.445-0.793
				c1.057,0,1.919,0.312,2.586,0.938c0.667,0.62,1,1.419,1,2.398c0,1.104-0.438,1.964-1.312,2.578c1,0.589,1.5,1.544,1.5,2.867
				c0,1.083-0.365,1.969-1.094,2.656c-0.729,0.688-1.664,1.031-2.805,1.031c-1.453,0-2.531-0.534-3.234-1.602
				c-0.292-0.448-0.477-1.067-0.555-1.859h1.758c0.094,0.583,0.321,1.03,0.684,1.34c0.362,0.31,0.834,0.465,1.418,0.465
				c0.588,0,1.075-0.195,1.461-0.586c0.385-0.401,0.578-0.909,0.578-1.523c0-0.812-0.289-1.391-0.867-1.734
				C191.075,37.498,190.552,37.398,189.844,37.398z"/>
			<path fill="#212E64" d="M196.961,42.125c0-0.292,0.106-0.544,0.32-0.758c0.213-0.213,0.469-0.32,0.766-0.32
				s0.552,0.107,0.766,0.32c0.213,0.214,0.32,0.469,0.32,0.766c0,0.302-0.107,0.56-0.32,0.773c-0.208,0.208-0.464,0.312-0.766,0.312
				c-0.308,0-0.565-0.104-0.773-0.312C197.065,42.698,196.961,42.438,196.961,42.125z"/>
			<path fill="#212E64" d="M207.547,35.719v2.336c-0.401-0.489-0.761-0.825-1.078-1.008c-0.312-0.188-0.68-0.281-1.102-0.281
				c-0.662,0-1.211,0.232-1.648,0.695c-0.438,0.464-0.656,1.044-0.656,1.742c0,0.714,0.211,1.3,0.633,1.758
				c0.427,0.458,0.971,0.688,1.633,0.688c0.422,0,0.794-0.091,1.117-0.273c0.312-0.177,0.68-0.521,1.102-1.031v2.32
				c-0.714,0.37-1.427,0.555-2.141,0.555c-1.177,0-2.162-0.38-2.953-1.141c-0.792-0.766-1.188-1.716-1.188-2.852
				c0-1.135,0.401-2.094,1.203-2.875c0.802-0.781,1.786-1.172,2.953-1.172C206.172,35.18,206.88,35.359,207.547,35.719z"/>
			<path fill="#212E64" d="M208.891,39.141c0-1.099,0.393-2.034,1.18-2.805c0.786-0.771,1.745-1.156,2.875-1.156
				c1.135,0,2.099,0.388,2.891,1.164c0.781,0.776,1.172,1.729,1.172,2.859c0,1.141-0.394,2.097-1.18,2.867
				c-0.792,0.766-1.763,1.148-2.914,1.148c-1.141,0-2.097-0.391-2.867-1.172C209.276,41.276,208.891,40.308,208.891,39.141z
				 M210.688,39.172c0,0.761,0.203,1.362,0.609,1.805c0.417,0.448,0.966,0.672,1.648,0.672c0.688,0,1.237-0.221,1.648-0.664
				c0.411-0.442,0.617-1.034,0.617-1.773c0-0.739-0.206-1.331-0.617-1.773c-0.417-0.448-0.966-0.672-1.648-0.672
				c-0.672,0-1.216,0.224-1.633,0.672C210.896,37.886,210.688,38.464,210.688,39.172z"/>
			<path fill="#212E64" d="M218.867,35.391h1.758v0.703c0.338-0.354,0.627-0.594,0.867-0.719c0.255-0.13,0.575-0.195,0.961-0.195
				c0.859,0,1.539,0.375,2.039,1.125c0.552-0.75,1.299-1.125,2.242-1.125c1.713,0,2.57,1.039,2.57,3.117V43h-1.766v-4.227
				c0-0.729-0.089-1.245-0.266-1.547c-0.183-0.307-0.482-0.461-0.898-0.461c-0.484,0-0.837,0.183-1.059,0.547
				c-0.222,0.365-0.332,0.951-0.332,1.758V43h-1.766v-4.203c0-1.354-0.391-2.031-1.172-2.031c-0.495,0-0.855,0.185-1.082,0.555
				c-0.227,0.37-0.34,0.953-0.34,1.75V43h-1.758V35.391z"/>
			<path fill="#212E64" d="M237.195,29.672l1.453,0.641l-6.906,15.984l-1.438-0.648L237.195,29.672z"/>
		</g>
		<g>
			<path fill="#212E64" d="M113.109,29.805h1.758v6.219c0.625-0.562,1.315-0.844,2.07-0.844c0.859,0,1.547,0.279,2.062,0.836
				c0.438,0.484,0.656,1.258,0.656,2.32V43h-1.758v-4.5c0-0.609-0.108-1.051-0.324-1.324c-0.216-0.273-0.564-0.41-1.043-0.41
				c-0.615,0-1.047,0.19-1.297,0.57c-0.245,0.386-0.367,1.047-0.367,1.984V43h-1.758V29.805z"/>
			<path fill="#212E64" d="M123.695,37.031V43h-1.758v-5.969h-0.75v-1.641h0.75v-2.789h1.758v2.789h1.367v1.641H123.695z"/>
			<path fill="#212E64" d="M128.07,37.031V43h-1.758v-5.969h-0.75v-1.641h0.75v-2.789h1.758v2.789h1.367v1.641H128.07z"/>
			<path fill="#212E64" d="M132.391,47.141h-1.758v-11.75h1.758v0.828c0.692-0.692,1.479-1.039,2.359-1.039
				c1.047,0,1.909,0.386,2.586,1.156c0.688,0.766,1.031,1.732,1.031,2.898c0,1.141-0.341,2.091-1.023,2.852
				c-0.677,0.755-1.531,1.133-2.562,1.133c-0.891,0-1.688-0.356-2.391-1.07V47.141z M136.57,39.242c0-0.729-0.198-1.323-0.594-1.781
				c-0.401-0.463-0.906-0.695-1.516-0.695c-0.646,0-1.169,0.224-1.57,0.672c-0.401,0.448-0.602,1.037-0.602,1.766
				c0,0.714,0.2,1.302,0.602,1.766c0.396,0.453,0.917,0.68,1.562,0.68c0.609,0,1.112-0.229,1.508-0.688
				C136.367,40.503,136.57,39.93,136.57,39.242z"/>
			<path fill="#212E64" d="M140.5,36.25c0-0.286,0.106-0.536,0.32-0.75c0.213-0.213,0.469-0.32,0.766-0.32s0.552,0.107,0.766,0.32
				c0.213,0.214,0.32,0.469,0.32,0.766c0,0.302-0.107,0.56-0.32,0.773c-0.208,0.208-0.464,0.312-0.766,0.312
				c-0.302,0-0.56-0.106-0.773-0.32C140.604,36.823,140.5,36.562,140.5,36.25z M140.5,42.125c0-0.292,0.106-0.544,0.32-0.758
				c0.213-0.213,0.469-0.32,0.766-0.32s0.552,0.107,0.766,0.32c0.213,0.214,0.32,0.469,0.32,0.766c0,0.302-0.107,0.56-0.32,0.773
				c-0.208,0.208-0.464,0.312-0.766,0.312c-0.308,0-0.565-0.104-0.773-0.312C140.604,42.698,140.5,42.438,140.5,42.125z"/>
			<path fill="#212E64" d="M150.836,29.672l1.453,0.641l-6.906,15.984l-1.438-0.648L150.836,29.672z"/>
			<path fill="#212E64" d="M159.125,29.672l1.453,0.641l-6.906,15.984l-1.438-0.648L159.125,29.672z"/>
			<path fill="#212E64" d="M163.5,29.805v6.469c0.703-0.729,1.5-1.094,2.391-1.094c1.026,0,1.88,0.383,2.562,1.148
				c0.682,0.761,1.023,1.708,1.023,2.844c0,1.172-0.344,2.141-1.031,2.906c-0.683,0.761-1.544,1.141-2.586,1.141
				c-0.88,0-1.667-0.338-2.359-1.016V43h-1.758V29.805H163.5z M167.68,39.25c0-0.729-0.198-1.323-0.594-1.781
				c-0.401-0.469-0.904-0.703-1.508-0.703c-0.646,0-1.172,0.227-1.578,0.68c-0.401,0.448-0.602,1.031-0.602,1.75
				c0,0.74,0.198,1.331,0.594,1.773c0.396,0.453,0.917,0.68,1.562,0.68c0.609,0,1.114-0.227,1.516-0.68
				C167.477,40.511,167.68,39.938,167.68,39.25z"/>
			<path fill="#212E64" d="M178.266,39.609h-5.453c0.047,0.625,0.25,1.123,0.609,1.492c0.359,0.365,0.82,0.547,1.383,0.547
				c0.438,0,0.799-0.104,1.086-0.312c0.281-0.208,0.602-0.594,0.961-1.156l1.484,0.828c-0.229,0.391-0.472,0.726-0.727,1.004
				c-0.255,0.279-0.529,0.508-0.82,0.688c-0.292,0.18-0.607,0.311-0.945,0.395c-0.339,0.083-0.706,0.125-1.102,0.125
				c-1.136,0-2.047-0.364-2.734-1.094c-0.688-0.734-1.031-1.708-1.031-2.922c0-1.203,0.333-2.177,1-2.922
				c0.672-0.734,1.562-1.102,2.672-1.102c1.12,0,2.005,0.357,2.656,1.07c0.646,0.708,0.969,1.69,0.969,2.945L178.266,39.609z
				 M176.461,38.172c-0.245-0.938-0.836-1.406-1.773-1.406c-0.214,0-0.414,0.033-0.602,0.098c-0.188,0.065-0.358,0.159-0.512,0.281
				c-0.154,0.123-0.285,0.27-0.395,0.441s-0.193,0.367-0.25,0.586H176.461z"/>
			<path fill="#212E64" d="M186.109,35.719v2.336c-0.401-0.489-0.761-0.825-1.078-1.008c-0.312-0.188-0.68-0.281-1.102-0.281
				c-0.662,0-1.211,0.232-1.648,0.695c-0.438,0.464-0.656,1.044-0.656,1.742c0,0.714,0.211,1.3,0.633,1.758
				c0.427,0.458,0.971,0.688,1.633,0.688c0.422,0,0.794-0.091,1.117-0.273c0.312-0.177,0.68-0.521,1.102-1.031v2.32
				c-0.714,0.37-1.427,0.555-2.141,0.555c-1.177,0-2.162-0.38-2.953-1.141c-0.792-0.766-1.188-1.716-1.188-2.852
				c0-1.135,0.401-2.094,1.203-2.875c0.802-0.781,1.786-1.172,2.953-1.172C184.734,35.18,185.442,35.359,186.109,35.719z"/>
			<path fill="#212E64" d="M190.844,37.398v-1.555c0.771,0,1.289-0.086,1.555-0.258c0.474-0.302,0.711-0.786,0.711-1.453
				c0-0.516-0.172-0.935-0.516-1.258c-0.339-0.328-0.779-0.492-1.32-0.492c-0.505,0-0.896,0.123-1.172,0.367
				c-0.266,0.25-0.464,0.672-0.594,1.266h-1.812c0.188-1.135,0.573-1.967,1.156-2.496c0.583-0.528,1.398-0.793,2.445-0.793
				c1.057,0,1.919,0.312,2.586,0.938c0.667,0.62,1,1.419,1,2.398c0,1.104-0.438,1.964-1.312,2.578c1,0.589,1.5,1.544,1.5,2.867
				c0,1.083-0.365,1.969-1.094,2.656c-0.729,0.688-1.664,1.031-2.805,1.031c-1.453,0-2.531-0.534-3.234-1.602
				c-0.292-0.448-0.477-1.067-0.555-1.859h1.758c0.094,0.583,0.321,1.03,0.684,1.34c0.362,0.31,0.834,0.465,1.418,0.465
				c0.588,0,1.075-0.195,1.461-0.586c0.385-0.401,0.578-0.909,0.578-1.523c0-0.812-0.289-1.391-0.867-1.734
				C192.075,37.498,191.552,37.398,190.844,37.398z"/>
			<path fill="#212E64" d="M197.961,42.125c0-0.292,0.106-0.544,0.32-0.758c0.213-0.213,0.469-0.32,0.766-0.32
				s0.552,0.107,0.766,0.32c0.213,0.214,0.32,0.469,0.32,0.766c0,0.302-0.107,0.56-0.32,0.773c-0.208,0.208-0.464,0.312-0.766,0.312
				c-0.308,0-0.565-0.104-0.773-0.312C198.065,42.698,197.961,42.438,197.961,42.125z"/>
			<path fill="#212E64" d="M208.547,35.719v2.336c-0.401-0.489-0.761-0.825-1.078-1.008c-0.312-0.188-0.68-0.281-1.102-0.281
				c-0.662,0-1.211,0.232-1.648,0.695c-0.438,0.464-0.656,1.044-0.656,1.742c0,0.714,0.211,1.3,0.633,1.758
				c0.427,0.458,0.971,0.688,1.633,0.688c0.422,0,0.794-0.091,1.117-0.273c0.312-0.177,0.68-0.521,1.102-1.031v2.32
				c-0.714,0.37-1.427,0.555-2.141,0.555c-1.177,0-2.162-0.38-2.953-1.141c-0.792-0.766-1.188-1.716-1.188-2.852
				c0-1.135,0.401-2.094,1.203-2.875c0.802-0.781,1.786-1.172,2.953-1.172C207.172,35.18,207.88,35.359,208.547,35.719z"/>
			<path fill="#212E64" d="M209.891,39.141c0-1.099,0.393-2.034,1.18-2.805c0.786-0.771,1.745-1.156,2.875-1.156
				c1.135,0,2.099,0.388,2.891,1.164c0.781,0.776,1.172,1.729,1.172,2.859c0,1.141-0.394,2.097-1.18,2.867
				c-0.792,0.766-1.763,1.148-2.914,1.148c-1.141,0-2.097-0.391-2.867-1.172C210.276,41.276,209.891,40.308,209.891,39.141z
				 M211.688,39.172c0,0.761,0.203,1.362,0.609,1.805c0.417,0.448,0.966,0.672,1.648,0.672c0.688,0,1.237-0.221,1.648-0.664
				c0.411-0.442,0.617-1.034,0.617-1.773c0-0.739-0.206-1.331-0.617-1.773c-0.417-0.448-0.966-0.672-1.648-0.672
				c-0.672,0-1.216,0.224-1.633,0.672C211.896,37.886,211.688,38.464,211.688,39.172z"/>
			<path fill="#212E64" d="M219.867,35.391h1.758v0.703c0.338-0.354,0.627-0.594,0.867-0.719c0.255-0.13,0.575-0.195,0.961-0.195
				c0.859,0,1.539,0.375,2.039,1.125c0.552-0.75,1.299-1.125,2.242-1.125c1.713,0,2.57,1.039,2.57,3.117V43h-1.766v-4.227
				c0-0.729-0.089-1.245-0.266-1.547c-0.183-0.307-0.482-0.461-0.898-0.461c-0.484,0-0.837,0.183-1.059,0.547
				c-0.222,0.365-0.332,0.951-0.332,1.758V43h-1.766v-4.203c0-1.354-0.391-2.031-1.172-2.031c-0.495,0-0.855,0.185-1.082,0.555
				c-0.227,0.37-0.34,0.953-0.34,1.75V43h-1.758V35.391z"/>
			<path fill="#212E64" d="M238.195,29.672l1.453,0.641l-6.906,15.984l-1.438-0.648L238.195,29.672z"/>
		</g>
	</g>
	<circle fill="#212E64" cx="72" cy="36" r="8.5"/>
	<circle fill="#212E64" cx="23" cy="36" r="8.5"/>
	<circle fill="#212E64" cx="47.5" cy="36" r="8.5"/>
</g>
</svg>
