<?xml version="1.0" encoding="utf-8"?>
<!-- Generator: Adobe Illustrator 16.0.0, SVG Export Plug-In . SVG Version: 6.00 Build 0)  -->
<!DOCTYPE svg PUBLIC "-//W3C//DTD SVG 1.1//EN" "http://www.w3.org/Graphics/SVG/1.1/DTD/svg11.dtd">
<svg version="1.1" id="Calque_1" xmlns="http://www.w3.org/2000/svg" xmlns:xlink="http://www.w3.org/1999/xlink" x="0px" y="0px"
	 width="61.954px" height="99.098px" viewBox="29.528 4.162 61.954 99.098" enable-background="new 29.528 4.162 61.954 99.098"
	 xml:space="preserve">
<g id="Light-ICON">
	<path fill="#212E64" d="M63.455,4.164c1.821,0.373,3.668,0.65,5.459,1.137C81.065,8.598,90.203,19.287,91.325,31.83
		c1.132,12.648-3.896,22.435-14.406,29.442c-0.681,0.454-0.918,0.894-0.904,1.694c0.055,3.127,0.024,6.255,0.021,9.384
		c-0.007,3.422-2.716,6.125-6.147,6.128c-6.226,0.004-12.444,0.005-18.674,0c-3.434-0.003-6.137-2.703-6.143-6.132
		c-0.005-3.192-0.02-6.386,0.012-9.578c0.005-0.638-0.157-1.021-0.737-1.392c-8.722-5.59-13.725-13.512-14.693-23.857
		c-1.438-15.312,9.671-29.96,24.792-32.781c1.064-0.199,2.141-0.384,3.211-0.576C59.584,4.164,61.52,4.164,63.455,4.164z
		 M69.842,72.246c0-0.439,0-0.791,0-1.142c0-4.032,0.015-8.063-0.014-12.097c-0.004-0.586,0.146-0.942,0.683-1.221
		c0.914-0.475,1.794-1.016,2.685-1.543c8.588-5.117,13.296-14.791,11.896-24.438C83.01,17.468,69.653,7.958,55.449,10.971
		c-9.136,1.938-15.392,7.575-18.332,16.409c-2.932,8.779-1.151,16.849,4.843,23.938c2.352,2.782,5.373,4.695,8.526,6.416
		c0.576,0.316,0.804,0.67,0.798,1.346c-0.034,4.032-0.021,8.062-0.021,12.096c0,0.345,0,0.688,0,1.07
		C57.485,72.246,63.6,72.246,69.842,72.246z"/>
	<path fill="#212E64" d="M56.101,103.251c-0.521-0.229-1.055-0.426-1.558-0.688c-1.975-1.03-3.044-2.772-3.347-5.397
		c-2.087-0.461-3.086-1.562-3.034-3.34c0.047-1.638,1.326-2.943,2.968-2.947c6.281-0.021,12.562-0.019,18.843-0.002
		c1.477,0.004,2.746,1.146,2.951,2.562c0.229,1.537-0.6,2.959-2.018,3.451c-0.325,0.111-0.667,0.176-1.027,0.271
		c-0.159,3.199-1.998,5.064-4.876,6.098C62.035,103.251,59.068,103.251,56.101,103.251z"/>
	<path fill="#212E64" d="M60.553,87.77c-3.03,0-6.062,0.002-9.097,0c-1.979-0.002-3.297-1.253-3.29-3.121
		c0.008-1.813,1.326-3.069,3.241-3.071c6.097-0.002,12.188-0.002,18.288,0c1.918,0.002,3.23,1.258,3.242,3.071
		c0.008,1.864-1.312,3.119-3.289,3.121C66.616,87.771,63.584,87.77,60.553,87.77z"/>
</g>
<polygon fill="#212E64" points="50.564,74.793 47.231,70.793 47.897,60.127 37.231,50.793 33.231,36.793 37.231,22.127 
	43.897,13.46 54.564,8.127 69.897,10.127 79.231,16.127 85.231,23.46 88.564,34.793 86.564,47.46 78.564,56.127 72.564,59.46 
	73.897,74.127 "/>
</svg>
