<?xml version="1.0" encoding="utf-8"?>
<!-- Generator: Adobe Illustrator 16.0.0, SVG Export Plug-In . SVG Version: 6.00 Build 0)  -->
<!DOCTYPE svg PUBLIC "-//W3C//DTD SVG 1.1//EN" "http://www.w3.org/Graphics/SVG/1.1/DTD/svg11.dtd">
<svg version="1.1" id="Calque_1" xmlns="http://www.w3.org/2000/svg" xmlns:xlink="http://www.w3.org/1999/xlink" x="0px" y="0px"
	 width="126.795px" height="108.589px" viewBox="0 0 126.795 108.589" enable-background="new 0 0 126.795 108.589"
	 xml:space="preserve">
<g id="Light-ICON">
	<polygon fill="#FCC020" points="63.897,80.794 51.231,80.461 51.231,64.461 38.231,53.794 35.564,37.461 39.231,24.794 
		48.564,18.128 57.231,13.461 67.564,13.128 76.564,16.128 84.897,22.461 89.564,33.461 91.231,49.461 84.231,58.128 79.897,64.794 
		76.564,64.794 76.564,77.128 75.231,79.461 	"/>
	<path fill="#212E64" d="M65.94,9.494c1.821,0.373,3.668,0.65,5.459,1.137c12.151,3.298,21.289,13.986,22.411,26.529
		c1.132,12.648-3.896,22.435-14.406,29.443c-0.681,0.453-0.918,0.893-0.904,1.693c0.055,3.127,0.024,6.256,0.021,9.385
		c-0.007,3.422-2.716,6.125-6.147,6.127c-6.226,0.004-12.444,0.006-18.674,0c-3.434-0.002-6.137-2.703-6.143-6.131
		c-0.005-3.193-0.02-6.387,0.012-9.578c0.005-0.639-0.157-1.021-0.737-1.393c-8.722-5.59-13.725-13.511-14.693-23.857
		C30.7,27.537,41.81,12.89,56.931,10.068c1.064-0.199,2.141-0.384,3.211-0.576C62.069,9.494,64.005,9.494,65.94,9.494z
		 M72.327,77.576c0-0.439,0-0.791,0-1.141c0-4.033,0.015-8.064-0.014-12.098c-0.004-0.586,0.146-0.941,0.683-1.221
		c0.914-0.475,1.794-1.016,2.685-1.543c8.588-5.117,13.296-14.791,11.896-24.438c-2.081-14.337-15.438-23.847-29.642-20.834
		c-9.136,1.938-15.392,7.575-18.332,16.409c-2.932,8.779-1.151,16.849,4.843,23.937c2.352,2.783,5.373,4.695,8.526,6.416
		c0.576,0.316,0.804,0.67,0.798,1.346c-0.034,4.033-0.021,8.062-0.021,12.096c0,0.346,0,0.688,0,1.07
		C59.971,77.576,66.085,77.576,72.327,77.576z"/>
	<path fill="#212E64" d="M58.586,108.582c-0.521-0.229-1.055-0.426-1.558-0.688c-1.975-1.031-3.044-2.773-3.347-5.398
		c-2.087-0.461-3.086-1.561-3.034-3.34c0.047-1.637,1.326-2.943,2.968-2.947c6.281-0.02,12.562-0.018,18.843-0.002
		c1.477,0.004,2.746,1.146,2.951,2.562c0.229,1.537-0.6,2.959-2.018,3.451c-0.325,0.111-0.667,0.176-1.027,0.271
		c-0.159,3.199-1.998,5.064-4.876,6.098C64.521,108.582,61.554,108.582,58.586,108.582z"/>
	<path fill="#212E64" d="M63.038,93.101c-3.03,0-6.062,0.002-9.097,0c-1.979-0.002-3.297-1.254-3.29-3.121
		c0.008-1.814,1.326-3.07,3.241-3.072c6.097-0.002,12.188-0.002,18.288,0c1.918,0.002,3.23,1.258,3.242,3.072
		c0.008,1.863-1.312,3.119-3.289,3.121C69.102,93.101,66.069,93.101,63.038,93.101z"/>
	<line fill="none" stroke="#212E64" stroke-width="4" stroke-miterlimit="10" x1="103.819" y1="15.039" x2="122.485" y2="1.623"/>
	<line fill="none" stroke="#212E64" stroke-width="4" stroke-miterlimit="10" x1="105.51" y1="72.992" x2="126.795" y2="81.669"/>
	<line fill="none" stroke="#212E64" stroke-width="4" stroke-miterlimit="10" x1="22.795" y1="77.992" x2="1.51" y2="86.669"/>
	<line fill="none" stroke="#212E64" stroke-width="4" stroke-miterlimit="10" x1="22.485" y1="17.039" x2="3.819" y2="3.623"/>
</g>
</svg>
