<?xml version="1.0" encoding="utf-8"?>
<!-- Generator: Adobe Illustrator 16.0.0, SVG Export Plug-In . SVG Version: 6.00 Build 0)  -->
<!DOCTYPE svg PUBLIC "-//W3C//DTD SVG 1.1//EN" "http://www.w3.org/Graphics/SVG/1.1/DTD/svg11.dtd">
<svg version="1.1" id="Calque_1" xmlns="http://www.w3.org/2000/svg" xmlns:xlink="http://www.w3.org/1999/xlink" x="0px" y="0px"
	 width="126.795px" height="108.589px" viewBox="358.27 190.668 126.795 108.589"
	 enable-background="new 358.27 190.668 126.795 108.589" xml:space="preserve">
<g id="Light-ICON">
	<path fill="#212E64" d="M423.455,200.163c1.821,0.374,3.668,0.651,5.459,1.137c12.151,3.298,21.289,13.987,22.411,26.53
		c1.132,12.648-3.895,22.434-14.406,29.442c-0.681,0.454-0.918,0.893-0.904,1.694c0.054,3.127,0.024,6.255,0.021,9.384
		c-0.007,3.422-2.716,6.125-6.147,6.128c-6.226,0.004-12.445,0.005-18.674,0c-3.434-0.003-6.137-2.703-6.143-6.132
		c-0.005-3.192-0.019-6.385,0.012-9.578c0.005-0.638-0.157-1.021-0.737-1.392c-8.722-5.59-13.725-13.511-14.694-23.857
		c-1.438-15.312,9.671-29.96,24.792-32.781c1.065-0.199,2.141-0.384,3.211-0.576C419.584,200.163,421.52,200.163,423.455,200.163z
		 M429.842,268.246c0-0.44,0-0.792,0-1.142c0-4.032,0.014-8.063-0.014-12.096c-0.004-0.587,0.146-0.943,0.683-1.221
		c0.914-0.475,1.794-1.016,2.684-1.543c8.588-5.117,13.296-14.792,11.896-24.439c-2.081-14.337-15.438-23.847-29.642-20.834
		c-9.136,1.938-15.391,7.575-18.332,16.41c-2.931,8.779-1.151,16.848,4.843,23.937c2.352,2.782,5.373,4.695,8.526,6.416
		c0.577,0.317,0.804,0.67,0.798,1.346c-0.034,4.032-0.021,8.062-0.021,12.095c0,0.345,0,0.688,0,1.071
		C417.485,268.246,423.6,268.246,429.842,268.246z"/>
	<path fill="#212E64" d="M416.101,299.252c-0.521-0.229-1.055-0.427-1.558-0.689c-1.975-1.03-3.044-2.773-3.347-5.397
		c-2.087-0.461-3.086-1.562-3.034-3.34c0.047-1.638,1.326-2.944,2.968-2.948c6.281-0.02,12.562-0.018,18.843-0.001
		c1.476,0.003,2.746,1.146,2.951,2.562c0.228,1.537-0.6,2.959-2.018,3.451c-0.325,0.111-0.667,0.176-1.027,0.271
		c-0.159,3.2-1.998,5.065-4.876,6.098C422.035,299.252,419.068,299.252,416.101,299.252z"/>
	<path fill="#212E64" d="M420.553,283.77c-3.031,0-6.062,0.002-9.097,0c-1.979-0.002-3.297-1.253-3.29-3.121
		c0.008-1.813,1.326-3.07,3.241-3.071c6.097-0.003,12.188-0.003,18.288,0c1.918,0.001,3.231,1.257,3.243,3.071
		c0.007,1.864-1.312,3.119-3.29,3.121C426.616,283.771,423.584,283.77,420.553,283.77z"/>
	<line fill="none" stroke="#212E64" stroke-width="4" stroke-miterlimit="10" x1="461.334" y1="205.708" x2="480" y2="192.292"/>
	<line fill="none" stroke="#212E64" stroke-width="4" stroke-miterlimit="10" x1="463.024" y1="263.661" x2="484.31" y2="272.34"/>
	<line fill="none" stroke="#212E64" stroke-width="4" stroke-miterlimit="10" x1="380.31" y1="268.661" x2="359.024" y2="277.34"/>
	<line fill="none" stroke="#212E64" stroke-width="4" stroke-miterlimit="10" x1="380" y1="207.708" x2="361.334" y2="194.293"/>
</g>
</svg>
