<?xml version="1.0" encoding="utf-8"?>
<!-- Generator: Adobe Illustrator 16.0.0, SVG Export Plug-In . SVG Version: 6.00 Build 0)  -->
<!DOCTYPE svg PUBLIC "-//W3C//DTD SVG 1.1//EN" "http://www.w3.org/Graphics/SVG/1.1/DTD/svg11.dtd">
<svg version="1.1" id="Calque_1" xmlns="http://www.w3.org/2000/svg" xmlns:xlink="http://www.w3.org/1999/xlink" x="0px" y="0px"
	 width="62.052px" height="21.951px" viewBox="390.349 272.242 62.052 21.951"
	 enable-background="new 390.349 272.242 62.052 21.951" xml:space="preserve">
<g>
	<path fill="#212E64" d="M390.355,272.434h4.188v18.019h5.535V294h-9.729v-21.566H390.355z"/>
	<path fill="#212E64" d="M406.706,272.434V294h-4.191v-21.566H406.706z"/>
	<path fill="#212E64" d="M422.417,293.424c-0.928,0.385-2.911,0.77-4.479,0.77c-2.464,0-4.316-0.701-5.76-2.146
		c-1.854-1.792-2.848-4.991-2.783-8.702c0.1-7.841,4.575-11.104,9.15-11.104c1.633,0,2.849,0.318,3.521,0.641l-0.736,3.615
		c-0.608-0.318-1.407-0.479-2.464-0.479c-2.852,0-5.119,1.948-5.119,7.584c0,5.184,2.016,7.039,3.967,7.039
		c0.385,0,0.673-0.031,0.832-0.1v-5.215h-1.92v-3.426h5.792L422.417,293.424L422.417,293.424z"/>
	<path fill="#212E64" d="M429.745,272.434v8.644h4.384v-8.644h4.191V294h-4.191v-9.023h-4.384V294h-4.191v-21.566H429.745z"/>
	<path fill="#212E64" d="M444.369,276.307h-3.812v-3.873H452.4v3.873h-3.844V294h-4.188V276.307z"/>
</g>
</svg>
