<?xml version="1.0" encoding="utf-8"?>
<!-- Generator: Adobe Illustrator 16.0.0, SVG Export Plug-In . SVG Version: 6.00 Build 0)  -->
<!DOCTYPE svg PUBLIC "-//W3C//DTD SVG 1.1//EN" "http://www.w3.org/Graphics/SVG/1.1/DTD/svg11.dtd">
<svg version="1.1" id="Calque_1" xmlns="http://www.w3.org/2000/svg" xmlns:xlink="http://www.w3.org/1999/xlink" x="0px" y="0px"
	 width="84.831px" height="22.082px" viewBox="379.357 272.674 84.831 22.082"
	 enable-background="new 379.357 272.674 84.831 22.082" xml:space="preserve">
<g>
	<path fill="#212E64" d="M379.357,273.254c1.28-0.288,2.944-0.416,4.768-0.416c2.016,0,3.968,0.256,5.472,1.535
		c1.152,0.96,1.632,2.4,1.632,3.904c0,1.92-0.992,3.771-3.136,4.703v0.127c2.496,0.705,3.84,2.785,3.84,5.149
		c0,1.792-0.576,3.167-1.6,4.228c-1.28,1.406-3.456,2.176-7.071,2.176c-1.6,0-2.944-0.096-3.904-0.225L379.357,273.254
		L379.357,273.254z M383.549,281.797h0.896c1.504,0,2.656-1.279,2.656-3.04c0-1.567-0.736-2.782-2.464-2.782
		c-0.448,0-0.832,0.03-1.088,0.127V281.797z M383.549,291.364c0.256,0.062,0.544,0.062,0.928,0.062c1.696,0,3.104-1.021,3.104-3.23
		c0-2.145-1.472-3.264-3.136-3.295h-0.896V291.364z"/>
	<path fill="#212E64" d="M398.876,272.934v14.019c0,3.168,0.96,4.128,2.048,4.128c1.216,0,2.08-0.864,2.08-4.128v-14.019h4.191
		v13.279c0,5.535-2.08,8.543-6.239,8.543c-4.512,0-6.271-3.104-6.271-8.512v-13.311H398.876L398.876,272.934z"/>
	<path fill="#212E64" d="M413.149,276.807h-3.808v-3.873h11.839v3.873h-3.84V294.5h-4.191V276.807L413.149,276.807z"/>
	<path fill="#212E64" d="M426.172,276.807h-3.809v-3.873h11.84v3.873h-3.84V294.5h-4.191V276.807L426.172,276.807z"/>
	<path fill="#212E64" d="M448.73,283.333c0,8.127-2.879,11.423-6.976,11.423c-4.896,0-6.815-5.184-6.815-11.104
		c0-5.887,2.336-10.979,7.104-10.979C447.26,272.678,448.73,278.404,448.73,283.333z M439.292,283.717
		c0,4.896,0.929,7.393,2.624,7.393c1.76,0,2.432-3.197,2.432-7.584c0-3.772-0.576-7.196-2.463-7.196
		C440.221,276.325,439.292,279.077,439.292,283.717z"/>
	<path fill="#212E64" d="M451.389,294.5v-21.566h3.84l3.328,8.447c0.639,1.664,1.695,4.448,2.303,6.305h0.064
		c-0.128-2.271-0.416-6.017-0.416-9.98v-4.771h3.68V294.5h-3.838l-3.297-8.191c-0.703-1.824-1.695-4.543-2.176-6.494h-0.064
		c0.097,2.179,0.256,5.502,0.256,9.822v4.863H451.389z"/>
</g>
</svg>
