<?xml version="1.0" encoding="utf-8"?>
<!-- Generator: Adobe Illustrator 16.0.0, SVG Export Plug-In . SVG Version: 6.00 Build 0)  -->
<!DOCTYPE svg PUBLIC "-//W3C//DTD SVG 1.1//EN" "http://www.w3.org/Graphics/SVG/1.1/DTD/svg11.dtd">
<svg version="1.1" id="Calque_1" xmlns="http://www.w3.org/2000/svg" xmlns:xlink="http://www.w3.org/1999/xlink" x="0px" y="0px"
	 width="181.492px" height="56.997px" viewBox="0 0 181.492 56.997" enable-background="new 0 0 181.492 56.997"
	 xml:space="preserve">
<g id="Run-ICON">
	<rect fill="#FCBF22" width="181.492" height="56.997"/>
	<g>
		<path fill="#212E64" d="M53.354,17.752c1.312-0.256,2.977-0.416,4.576-0.416c2.305,0,4.352,0.32,5.76,1.6
			c1.311,1.188,1.691,2.623,1.691,4.479c0,2.305-1.115,4.385-3.324,5.408v0.061c1.473,0.577,2.209,1.954,2.625,4.256
			c0.414,2.4,0.986,5.061,1.375,5.855h-4.389c-0.256-0.607-0.73-2.783-1.055-5.152c-0.385-2.688-1.057-3.455-2.465-3.455h-0.607
			v8.607h-4.188V17.752L53.354,17.752z M57.545,27.158h0.736c1.824,0,2.879-1.476,2.879-3.359c0-1.824-0.736-3.135-2.625-3.199
			c-0.352,0-0.768,0.031-0.992,0.128L57.545,27.158L57.545,27.158z"/>
		<path fill="#212E64" d="M72.457,17.432v14.02c0,3.168,0.959,4.127,2.047,4.127c1.221,0,2.08-0.863,2.08-4.127v-14.02h4.191v13.28
			c0,5.535-2.08,8.543-6.238,8.543c-4.512,0-6.271-3.105-6.271-8.512V17.43L72.457,17.432L72.457,17.432z"/>
		<path fill="#212E64" d="M84.393,38.999V17.432h3.84l3.328,8.447c0.639,1.664,1.691,4.448,2.303,6.303h0.064
			c-0.133-2.27-0.416-6.016-0.416-9.979v-4.771h3.68v21.566h-3.84l-3.294-8.191c-0.705-1.822-1.695-4.542-2.18-6.496h-0.062
			c0.096,2.18,0.256,5.503,0.256,9.824v4.863H84.393L84.393,38.999z"/>
	</g>
	<polygon fill="#212E64" points="129,40.114 129,16.91 143.906,27.947 	"/>
</g>
</svg>
