<?xml version="1.0" encoding="utf-8"?>
<!-- Generator: Adobe Illustrator 16.0.0, SVG Export Plug-In . SVG Version: 6.00 Build 0)  -->
<!DOCTYPE svg PUBLIC "-//W3C//DTD SVG 1.1//EN" "http://www.w3.org/Graphics/SVG/1.1/DTD/svg11.dtd">
<svg version="1.1" xmlns="http://www.w3.org/2000/svg" xmlns:xlink="http://www.w3.org/1999/xlink" x="0px" y="0px"
	 width="245.396px" height="28.395px" viewBox="291.333 276.334 245.396 28.395"
	 enable-background="new 291.333 276.334 245.396 28.395" xml:space="preserve">
<g id="Calque_1">
</g>
<g id="Calque_2">
	<path fill-rule="evenodd" clip-rule="evenodd" fill="#212E64" d="M509.499,288.393c0.479-2.634,1.606-4.95,3.434-6.923
		c2.605-2.813,5.828-4.287,9.645-4.489c0.637-0.035,0.639-0.019,0.64,0.629c0,1.599,0.009,3.198-0.006,4.796
		c-0.005,0.367,0.104,0.497,0.48,0.491c1.419-0.018,2.839-0.009,4.258-0.006c1.275,0.002,2.27,0.521,2.839,1.679
		c0.568,1.155,0.413,2.276-0.39,3.274c-0.596,0.742-1.416,1.075-2.363,1.079c-1.434,0.005-2.868,0.016-4.302-0.01
		c-0.426-0.007-0.535,0.14-0.524,0.541c0.024,0.955,0.021,1.912,0.002,2.868c-0.008,0.358,0.123,0.463,0.468,0.458
		c1.42-0.014,2.839-0.006,4.257-0.007c1.277-0.001,2.273,0.512,2.845,1.669c0.579,1.171,0.424,2.299-0.406,3.307
		c-0.62,0.751-1.456,1.06-2.418,1.059c-1.434-0.001-2.867,0.014-4.302-0.009c-0.38-0.005-0.473,0.108-0.468,0.479
		c0.02,1.657-0.002,3.315,0.015,4.973c0.004,0.374-0.115,0.49-0.486,0.478c-2.944-0.101-5.6-1.027-7.935-2.812
		c-2.89-2.205-4.655-5.117-5.296-8.697C509.425,292.888,509.432,288.757,509.499,288.393z"/>
	<path fill-rule="evenodd" clip-rule="evenodd" fill="#212E64" d="M536.668,293.363c-0.478,2.604-1.605,4.889-3.405,6.84
		c-2.622,2.841-5.866,4.336-9.721,4.517c-0.559,0.025-0.561,0.013-0.561-0.562c-0.001-8.859-0.001-17.718-0.002-26.576
		c0-0.618,0.002-0.629,0.615-0.603c2.922,0.128,5.556,1.067,7.87,2.858c2.852,2.205,4.593,5.094,5.228,8.64
		C536.752,288.806,536.738,292.975,536.668,293.363z"/>
	<rect x="315.596" y="288.353" fill-rule="evenodd" clip-rule="evenodd" fill="#212E64" width="195.032" height="4.441"/>
	<circle fill="#212E64" cx="304.667" cy="289.668" r="13.333"/>
</g>
</svg>
