<?xml version="1.0" encoding="utf-8"?>
<!-- Generator: Adobe Illustrator 16.0.0, SVG Export Plug-In . SVG Version: 6.00 Build 0)  -->
<!DOCTYPE svg PUBLIC "-//W3C//DTD SVG 1.1//EN" "http://www.w3.org/Graphics/SVG/1.1/DTD/svg11.dtd">
<svg version="1.1" id="Calque_1" xmlns="http://www.w3.org/2000/svg" xmlns:xlink="http://www.w3.org/1999/xlink" x="0px" y="0px"
	 width="245.396px" height="28.395px" viewBox="0 0 245.396 28.395" enable-background="new 0 0 245.396 28.395"
	 xml:space="preserve">
<g id="Calque_1_1_">
</g>
<g id="Calque_2">
	<path fill="#212E64" d="M85.666,12.058c0.479-2.634,1.606-4.95,3.434-6.923c2.605-2.812,5.828-4.287,9.646-4.489
		c0.637-0.035,0.639-0.019,0.64,0.629c0,1.6,0.009,3.198-0.006,4.796c-0.005,0.367,0.104,0.497,0.48,0.491
		c1.419-0.018,2.839-0.009,4.258-0.006c1.274,0.002,2.27,0.521,2.839,1.679c0.568,1.155,0.413,2.276-0.39,3.274
		c-0.597,0.742-1.416,1.075-2.363,1.079c-1.435,0.005-2.868,0.016-4.302-0.01c-0.427-0.008-0.535,0.14-0.524,0.541
		c0.024,0.954,0.021,1.911,0.002,2.867c-0.008,0.358,0.123,0.464,0.468,0.458c1.42-0.014,2.839-0.006,4.257-0.007
		c1.277-0.001,2.273,0.513,2.846,1.669c0.579,1.171,0.424,2.3-0.406,3.308c-0.62,0.751-1.456,1.06-2.418,1.059
		c-1.434-0.001-2.867,0.014-4.302-0.009c-0.38-0.005-0.474,0.107-0.469,0.479c0.021,1.657-0.002,3.315,0.016,4.974
		c0.004,0.374-0.115,0.489-0.486,0.478c-2.943-0.101-5.6-1.026-7.935-2.812c-2.891-2.205-4.655-5.117-5.296-8.697
		C85.592,16.553,85.598,12.422,85.666,12.058z"/>
</g>
</svg>
