<?xml version="1.0" encoding="utf-8"?>
<!-- Generator: Adobe Illustrator 16.0.0, SVG Export Plug-In . SVG Version: 6.00 Build 0)  -->
<!DOCTYPE svg PUBLIC "-//W3C//DTD SVG 1.1//EN" "http://www.w3.org/Graphics/SVG/1.1/DTD/svg11.dtd">
<svg version="1.1" id="Calque_1" xmlns="http://www.w3.org/2000/svg" xmlns:xlink="http://www.w3.org/1999/xlink" x="0px" y="0px"
	 width="64px" height="64px" viewBox="0 0 64 64" enable-background="new 0 0 64 64" xml:space="preserve">
<g>
	<path fill-rule="evenodd" clip-rule="evenodd" fill="#212E64" d="M14.917,27.738c0-6.541-0.003-13.081,0.004-19.622
		c0.001-0.945,0.052-1.891,0.091-2.835c0.031-0.749,0.51-1.177,1.131-1.46c0.609-0.279,1.229-0.301,1.78,0.155
		c0.29,0.241,0.56,0.51,0.829,0.774c10.107,9.911,20.105,19.927,30.073,29.976c0.354,0.359,0.68,0.747,1.043,1.098
		c0.631,0.607,0.704,1.318,0.391,2.081c-0.322,0.788-0.907,1.227-1.791,1.256c-3.363,0.111-6.729,0.089-10.092,0.101
		c-1.009,0.003-1.011,0.001-0.624,0.938c1.764,4.274,3.533,8.547,5.29,12.824c0.224,0.544,0.41,1.104,0.571,1.668
		c0.267,0.936-0.059,1.768-0.931,2.161c-2.627,1.185-5.284,2.293-7.999,3.256c-0.909,0.321-1.822-0.156-2.246-1.133
		c-1.067-2.47-2.115-4.948-3.159-7.426c-0.946-2.248-1.876-4.502-2.816-6.752c-0.278-0.659-0.281-0.655-0.813-0.137
		c-2.469,2.409-4.835,4.923-7.381,7.25c-0.818,0.748-1.603,0.792-2.521,0.186c-0.354-0.234-0.605-0.526-0.636-0.96
		c-0.07-0.985-0.184-1.97-0.187-2.955C14.909,41.367,14.916,34.553,14.917,27.738z M43.204,35.014
		c-8.066-8.069-16.116-16.121-24.158-24.166c0,11.469,0,22.99,0,34.535c0.276-0.097,0.402-0.303,0.563-0.46
		c2.52-2.475,4.951-5.039,7.548-7.438c0.392-0.363,0.589-0.363,0.792,0.161c0.41,1.059,0.859,2.101,1.294,3.148
		c1.938,4.657,3.887,9.309,5.804,13.974c0.234,0.57,0.503,0.672,1.04,0.425c0.725-0.332,1.467-0.635,2.22-0.897
		c0.563-0.196,0.663-0.438,0.423-1.013c-2.396-5.74-4.763-11.493-7.136-17.243c-0.401-0.971-0.388-0.983,0.688-0.983
		c3.427-0.001,6.854,0,10.281-0.003C42.788,35.054,43.022,35.107,43.204,35.014z"/>
</g>
</svg>
